/* XPM */
static char *wall21683119388[] = {
/* columns rows colors chars-per-pixel */
"32 32 9 1 ",
"  c #1C2123",
". c #273034",
"X c #333C40",
"o c #49565C",
"O c #576369",
"+ c #8198A3",
"@ c #A1BECC",
"# c #CEE0E9",
"$ c #E3EEF3",
/* pixels */
"$###@+                          ",
"$###@+ oXXXXXXX XXo..oo .       ",
"$###@+ oXX      XXo..oo         ",
"$###@+ oXX oXX  XXo......       ",
"$###@+ oXX      XXo......       ",
"$###@+ oXX oXX  XXo.   o.       ",
"$###@+ oXX oXX  XXo.   o.       ",
"$###@+ oXX oXX  XXo.   o.       ",
"$###@+           Xo......       ",
"$###@+              XXX         ",
"$###@+ XXXXXXXo   XXXXXO        ",
"$###@+       Xo   ..XXXO        ",
"$###@+       Xo   .....o        ",
"$###@+ oXXXXXXX   X....o        ",
"$###@+ oXXXXXXX   X....o        ",
"$###@+ oXXXXXXX   X....o        ",
"$###@+ oXXXXXXX   X....o        ",
"$###@+ ooooooXo   ooooooo       ",
"$###@+ oXXXXXX  X o......       ",
"$###@+ oXXXXXX  XXo.OOO O       ",
"$###@+           Xo.O   O       ",
"$###@+            o.... O       ",
"$###@+ oXo Xo X X o......       ",
"$###@+ oXo Xo X XX o... O       ",
"$###@+ oXXXXXXX XX  o....       ",
"$###@+ oXXXXXXX XX   oo..       ",
"$###@+ ooooooo  XX     o.       ",
"$###@+ oXXXXXX  XX      o       ",
"$###@+ oXXX oX  XX              ",
"$###@+ oXXX oX  XX              ",
"$###@+ oXXXXXX  XX              ",
"$###@+ oXXXXXX                  "
};
