/* XPM */
static char *wall51683119389[] = {
/* columns rows colors chars-per-pixel */
"32 32 9 1 ",
"  c #1C2123",
". c #273034",
"X c #333C40",
"o c #49565C",
"O c #576369",
"+ c #8198A3",
"@ c #A1BECC",
"# c #CEE0E9",
"$ c #E3EEF3",
/* pixels */
"$###@+ oXXXXXXX   X...o         ",
"$###@+ oXXXXXXX   ooooooo       ",
"$###@+ ooooooXo   o......       ",
"$###@+ oXXXXXX X  o.OO O.       ",
"$###@+ oXXXXXX X  o.O  O.       ",
"$###@+            o... O.       ",
"$###@+            o......       ",
"$###@+ oXo Xo XX   o.. O.       ",
"$###@+ oXo Xo XX    o....       ",
"$###@+ oXXXXXXXX     o...       ",
"$###@+ oXXXXXXXX      o..       ",
"$###@+ ooooooo X       oo       ",
"$###@+ oXXXXXX X                ",
"$###@+ oXXX oX X                ",
"$###@+ oXXX oX X                ",
"$###@+ oXXXXXX X                ",
"$###@+ oXXXXXX X  O...o         ",
"$###@+ oXXXXXX X XOOOOOXX       ",
"$###@+ oXo X   X X..XXOXX       ",
"$###@+ oXo X o X  XXXXO         ",
"$###@+ oXXXX o X    XX          ",
"$###@+ oXo X o X  O.XXo         ",
"$###@+ oXo X o X XOOOOOXX       ",
"$###@+ oXXXX o X X..XXOXX       ",
"$###@+ oXo X o X  XXXXO         ",
"$###@+ oXo X   X    XX          ",
"$###@+ oXXXXXX X  ..XXo         ",
"$###@+ oXXXXXX X XOOOOOXX       ",
"$###@+ oXXXXXX X XO...OXX       ",
"$###@+ o  XX o X  XXXXO         ",
"$###@+ oXXXXXX X                ",
"$###@+                          "
};
