/* XPM */
static char *wall41683119388[] = {
/* columns rows colors chars-per-pixel */
"32 32 9 1 ",
"  c #1C2123",
". c #273034",
"X c #333C40",
"o c #49565C",
"O c #576369",
"+ c #8198A3",
"@ c #A1BECC",
"# c #CEE0E9",
"$ c #E3EEF3",
/* pixels */
"$###@+ oXXXXXXXX                ",
"$###@+ o  XXXX o  Ooooooo       ",
"$###@+ oXXXXXXXX  o......       ",
"$###@+ oXXXX oXX  o......       ",
"$###@+ oXXXX oXX  o..O...       ",
"$###@+ oXXXX oXX  o..o ..       ",
"$###@+ oXXXX oXX  o..o ..       ",
"$###@+ oXXXXXXXX  o..o ..       ",
"$###@+ oXXXXXXXX  o..o ..       ",
"$###@+ ooooooooo  o..o ..       ",
"$###@+ oXXXXXXXX  o..o ..       ",
"$###@+ o    oXXo  o..o ..       ",
"$###@+ o    oXXo  o..o ..       ",
"$###@+ oXXXXXXXo  o..o ..       ",
"$###@+ oXXXXXXXo  o..o ..       ",
"$###@+ oXXXXXXXX  o..o ..       ",
"$###@+ oXXXXXXXX  o..o ..       ",
"$###@+ oXXX  oXX  o..o ..       ",
"$###@+ oXXXXXXXX  o..o          ",
"$###@+ oXX     X  o......       ",
"$###@+ oXX oXX X  o......       ",
"$###@+ oXX     X  o.  o..       ",
"$###@+ oXX oXX X  o.  o..       ",
"$###@+ oXX oXX X  o.  o..       ",
"$###@+ oXX oXX X  o......       ",
"$###@+              XX          ",
"$###@+            XXXXO         ",
"$###@+ XXXXXXXo  X..XXO         ",
"$###@+       Xo  X....o         ",
"$###@+       Xo   X...o         ",
"$###@+ oXXXXXXX   X...o         ",
"$###@+ oXXXXXXX   X...o         "
};
