/* XPM */
static char *wall31683119388[] = {
/* columns rows colors chars-per-pixel */
"32 32 9 1 ",
"  c #1C2123",
". c #273034",
"X c #333C40",
"o c #49565C",
"O c #576369",
"+ c #8198A3",
"@ c #A1BECC",
"# c #CEE0E9",
"$ c #E3EEF3",
/* pixels */
"$###@+                          ",
"$###@+ o  XXXX ooo  o  o....    ",
"$###@+ ooooXXX oXXo oo   ooX    ",
"$###@+ o   oXX oXXX o   oXXX    ",
"$###@+ oXXX oX o XX     oXXX    ",
"$###@+ oXXX oX o XX       o     ",
"$###@+ oXXX oX o XX      oo     ",
"$###@+ oXXX oX o XX  oXXXoo     ",
"$###@+ oXXX oX o XX  o...o      ",
"$###@+ oXXX oX o XX             ",
"$###@+ oXXX oX o XX  oXXX       ",
"$###@+ oXXX oX o XX  o...       ",
"$###@+ o   oXX o XX   o         ",
"$###@+ ooooXXX o XX   o         ",
"$###@+ o   oXX o XX   o         ",
"$###@+ oXXX oX o XX   o         ",
"$###@+ oXXX oX o XX  XXXXo      ",
"$###@+ oXXX oX o XX X....o      ",
"$###@+ oXXX oXXX XX X....o      ",
"$###@+ oXXX oXXX XX  ..XXo      ",
"$###@+ oXXX oXXX XX    XX       ",
"$###@+ oXXX oXXX XX  XXXXO      ",
"$###@+ oXXX oXXX XX X..XXO      ",
"$###@+ oXXX oXXX XX X....o      ",
"$###@+ o   XXXXX XX  ..XXo      ",
"$###@+ oXXXXXXXX XX    XX       ",
"$###@+ oXXXXXXXX XX  XXXXO      ",
"$###@+ oXXXXXXXX XX X..XXO      ",
"$###@+ oXXXXXXXX XX X....o      ",
"$###@+ o  XXXX o XX  ....o      ",
"$###@+ oXXXXXXXX XX             ",
"$###@+                          "
};
