/* XPM */
static char *wall11683119388[] = {
/* columns rows colors chars-per-pixel */
"32 32 9 1 ",
"  c #1C2123",
". c #333C40",
"X c #49565C",
"o c #576369",
"O c #687A82",
"+ c #8198A3",
"@ c #A1BECC",
"# c #CEE0E9",
"$ c #E3EEF3",
/* pixels */
"$###@+                          ",
"$###@+  ........   XXXX         ",
"$###@+  .OO..OO. o XXXX         ",
"$###@+  .OO..OO. o XXXX         ",
"$###@+  ........ o  ..          ",
"$###@+  XOOXOXOX o XXXX         ",
"$###@+  OX X X X o XXXX         ",
"$###@+  O        o XXXX         ",
"$###@+  ...      o  ..          ",
"$###@+  .O.     o  XXXX         ",
"$###@+  ...     o  XXXX         ",
"$###@+   .  XXX o  XXXX         ",
"$###@+  ... X X o   ..          ",
"$###@+  ... XXX o  XXXX         ",
"$###@+  .O. X X o  XXXXXX       ",
"$###@+  .O. X X o  XXXXXX       ",
"$###@+  ... XXX  o XXXX         ",
"$###@+           o  ..          ",
"$###@+  X XX OO  o XXXX         ",
"$###@+           o XXXXXX       ",
"$###@+  XXXX OO o  XXXXXX       ",
"$###@+          o  XXXX         ",
"$###@+  XX X OO o   ..          ",
"$###@+           o XXXX         ",
"$###@+  X XX OO  o XXXX         ",
"$###@+             XXXX         ",
"$###@+  XXXX ....X  ..          ",
"$###@+       .X... XXXX         ",
"$###@+  XXXX ..X.. XXXX         ",
"$###@+       ...X. XXXX         ",
"$###@+  XX X X....  ..          ",
"$###@+                          "
};
