/* XPM */
static char *_ac3c68cb5f742cfb1cf44347d8f42395EwqNRf5PD3CZcjE[] = {
/* columns rows colors chars-per-pixel */
"33 33 30 1 ",
"  c black",
". c gray8",
"X c #1A242B",
"o c #262926",
"O c #29303B",
"+ c #303430",
"@ c #3B3838",
"# c #6B1717",
"$ c #36384A",
"% c #1F3069",
"& c #545959",
"* c #4F526B",
"= c #A33333",
"- c #875844",
"; c #AF787D",
": c #D4997A",
"> c #47668F",
", c #7C8383",
"< c #858A8C",
"1 c gray58",
"2 c #A3ABAF",
"3 c #B0B8BA",
"4 c #C49397",
"5 c #C49FA5",
"6 c #FFCFB0",
"7 c #82ADD4",
"8 c LightGray",
"9 c #FFE8CC",
"0 c #DBE6EB",
"q c None",
/* pixels */
"qqqqqqqqqqqqqqqqqqqqqqqqqqqqqqqqq",
"qqqqqqqqqqqqooo@@@@@ooqqqqqqqqqqq",
"qqqqqqqqq@@@o@@@&<<&&@ooqqqqqqqqq",
"qqqqqqqq@<<o&<&@@33<<&&@oqqqqqqqq",
"qqqqqqo@<&<&<<<<&@&<&@oo@oqqqqqqq",
"qqqqqqqo@<3<33&3&&@@33&@ooqqqqqqq",
"qqqqqqq@<&<@&<o&<@&&@@3&@ooqqqqqq",
"qqqqqq@&o@&o@&5@<&@@o&&<&@oqqqqqq",
"qqqqqqoqoo@5o599@<&o3&@&<&@oqqqqq",
"qqqqqqqq ;o959999@&o3<o@&<&oqqqqq",
"qqqqqqqq -59999995@&<<&o@&<&oqqqq",
"qqqqqqqqq 699---:6o&<&<&o@@&&oqqq",
"qqqqqqqqq 666##1:64@<&o@@ooooqqqq",
"qqqqqqqqq 666##8:66@&<@o@@@oqqqqq",
"qqqqqqqqq 666==8699;@&<&@@@oqqqqq",
"qqqqqqqqq 999==8999:ooo@@@oqqqqqq",
"qqqqqqqqq 999999999:o@@&&oqqqqqqq",
"qqqqqqqqq :99999996-oo@&<o@qqqqqq",
"qqqqqqqqqq :699996-..o@@&<&@qqqqq",
"qqqqqqqqqqq  -----*$OOoo@@@qqqqqq",
"qqqqqqqqqqqXO$***OXX$$$X qqqqqqqq",
"qqqqqqqqqqqqXXXXXXO$**$$Xqqqqqqqq",
"qqqqqqqqqqqqXO$*$$$$*$*$O qqqqqqq",
"qqqqqqqqq -XO$***$OXO***$ qqqqqqq",
"qqqqqqqqq 6XO$***$XOO**$O qqqqqqq",
"qqqqqqqqq :XXO$*$O-O$O$O qqqqqqqq",
"qqqqqqqqqq  %%>>% 6-O$OX qqqqqqqq",
"qqqqqqqqqqqq%>77> 6:XOX qqqqqqqqq",
"qqqqqqqqqqqq,2%>>%--%%+ qqqqqqqqq",
"qqqqqqqqqqqq+,002+ +++  qqqqqqqqq",
"qqqqqqqqqqqq +++++      qqqqqqqqq",
"qqqqqqqqqqqq ,22, qqqqqqqqqqqqqqq",
"qqqqqqqqqqqqqqqqqqqqqqqqqqqqqqqqq"
};
