/* XPM */
static char *cGxheWVyX2Ux[] = {
/* columns rows colors chars-per-pixel */
"33 33 30 1 ",
"  c black",
". c gray8",
"X c #1A242B",
"o c #262926",
"O c #29303B",
"+ c #303430",
"@ c #3B3838",
"# c #6B1717",
"$ c #36384A",
"% c #1F3069",
"& c #545959",
"* c #4F526B",
"= c #A33333",
"- c #875844",
"; c #AF787D",
": c #D4997A",
"> c #47668F",
", c #7C8383",
"< c #858A8C",
"1 c gray58",
"2 c #A3ABAF",
"3 c #B0B8BA",
"4 c #C49397",
"5 c #C49FA5",
"6 c #FFCFB0",
"7 c #82ADD4",
"8 c LightGray",
"9 c #FFE8CC",
"0 c #DBE6EB",
"q c None",
/* pixels */
"qqqqqqqqqqqqqqqqqqqqqqqqqqqqqqqqq",
"qqqqqqqqqqqqoo@@@@@oooqqqqqqqqqqq",
"qqqqqqqqqqoo@&&<<&@@@o@@@qqqqqqqq",
"qqqqqqqqqo@&&<<33@@&<&o<<@qqqqqqq",
"qqqqqqqqo@oo@&<&@&<<<<&<&<@oqqqqq",
"qqqqqqqqoo@&33@@&&3&33<3<@oqqqqqq",
"qqqqqqqoo@&3@@&&@<&o<&@<&<@qqqqqq",
"qqqqqqqo@&<&&o@@&<@5&@o&@o&@qqqqq",
"qqqqqqo@&<&@&3o&<@995o5@ooqoqqqqq",
"qqqqqqo&<&@o<3o&@999959o; qqqqqqq",
"qqqqqo&<&@o&<<&@59999995- qqqqqqq",
"qqqqo&&@@o&<&<&o6:---996 qqqqqqqq",
"qqqqqoooo@@o&<@46:1##666 qqqqqqqq",
"qqqqqqo@@@o@<&@66:8##666 qqqqqqqq",
"qqqqqqo@@@&<&@;9968==666 qqqqqqqq",
"qqqqqqqo@@@ooo:9998==999 qqqqqqqq",
"qqqqqqqqo&&@@o:999999999 qqqqqqqq",
"qqqqqqq@o<&@oo-69999999: qqqqqqqq",
"qqqqqq@&<&@@o..-699996: qqqqqqqqq",
"qqqqqqq@@@ooOO$*-----  qqqqqqqqqq",
"qqqqqqqqqqXXXOXO$***$OXqqqqqqqqqq",
"qqqqqqqqqq O$*$XOXXXXXqqqqqqqqqqq",
"qqqqqqqqqqX$***OXOOOXqqqqqqqqqqqq",
"qqqqqqqqqqX$*$O**$:6OXqqqqqqqqqqq",
"qqqqqqqqq X$$O$**$::OXqqqqqqqqqqq",
"qqqqqqqqq %O$$$$X$-XOXqqqqqqqqqqq",
"qqqqqqqqq%%% XOOOXO Xqqqqqqqqqqqq",
"qqqqqqqqq%%>>% XX  %%qqqqqqqqqqqq",
"qqqqqqqqq+,277>% %%>%qqqqqqqqqqqq",
"qqqqqqqqq+,,0002  >>+qqqqqqqqqqqq",
"qqqqqqqqqq++++++q +,,qqqqqqqqqqqq",
"qqqqqqqqqq ,,2, qqqqqqqqqqqqqqqqq",
"qqqqqqqqqqqqqqqqqqqqqqqqqqqqqqqqq"
};
