/* XPM */
static char *_629a505532a4a79baf2d58e266316d6GbiX9sMpWRUxtZYE[] = {
/* columns rows colors chars-per-pixel */
"32 33 27 1 ",
"  c black",
". c #1A242B",
"X c #262926",
"o c #29303B",
"O c #3B3838",
"+ c #6B1717",
"@ c #36384A",
"# c #1F3069",
"$ c #504C4C",
"% c #545959",
"& c #4F526B",
"* c #A33333",
"= c #875844",
"- c #D4997A",
"; c #47668F",
": c #7C8383",
"> c #858A8C",
", c gray58",
"< c #A3ABAF",
"1 c #B0B8BA",
"2 c #C49FA5",
"3 c #FFCFB0",
"4 c #82ADD4",
"5 c LightGray",
"6 c #FFE8CC",
"7 c #DBE6EB",
"8 c None",
/* pixels */
"88888888888888888888888888888888",
"888888888888OOOXXOOOO88888888888",
"8888888888OO%%OX%>>%%OX888888888",
"888888888O%>%OOO%OO>%>%X88888888",
"88888888O%>O%>>%O%%OO1>%X8888888",
"8888888XXO%11>>>>%>>1OOXXX888888",
"8888888O%%>O%>%>>%%%>>%X%O888888",
"888888O%XXO>1O%1O%1O%OX>>%O88888",
"888888X%>O%1O2O%XO>X%%OOOOX88888",
"888888XOO%>O262O2XO2O%%XOOX88888",
"88888XO%O>O2666262X62O%X%OOX8888",
"8888XXO>X%266666666662OX>%XXX888",
"888O%%>>%X3===66666===3X%>>%OO88",
"8888XO%%O33,++33333++,33O%%OX888",
"88888XOX -35++33333++53- XOX8888",
"8888XOO  -35**33333**53-  OOX888",
"8888XO%X =35**66666**53= X%OX888",
"88888XOXo -36666666663-  XOX8888",
"888888.o@o=-366666663-=.o.888888",
"88888.o@@@.o=--333--==.o@@.88888",
"88888.@@@o.o@o=====o@o.@&&@.8888",
"8888.oo@o.o.o@&&&&@@o..&&&@.8888",
"8888ooooo.oo@oo...oooo.@&@@o.888",
"8888oooo.. @@@@&&&@@o o&&&@o.888",
"8888.@@o.8 o@@&&&&&@o=--@@o.8888",
"8888 o== 8##.o@@@@o.#=63.o 88888",
"88888 -- 8#;;44;;##;# -3. 888888",
"888888  88##;;;;# ####   8888888",
"8888888888 $:77<$ ###88888888888",
"88888888888 :$$$< $$ 88888888888",
"88888888888 $<7<$   888888888888",
"8888888888888 $$ 888888888888888",
"88888888888888888888888888888888"
};
