/* XPM */
static char *_105e60b0c3b44b0b776ff0b30e99b08Se96qSogBbr53zdh[] = {
/* columns rows colors chars-per-pixel */
"33 33 30 1 ",
"  c black",
". c gray8",
"X c #1A242B",
"o c #262926",
"O c #29303B",
"+ c #303430",
"@ c #3B3838",
"# c #6B1717",
"$ c #36384A",
"% c #1F3069",
"& c #545959",
"* c #4F526B",
"= c #A33333",
"- c #875844",
"; c #AF787D",
": c #D4997A",
"> c #47668F",
", c #7C8383",
"< c #858A8C",
"1 c gray58",
"2 c #A3ABAF",
"3 c #B0B8BA",
"4 c #C49397",
"5 c #C49FA5",
"6 c #FFCFB0",
"7 c #82ADD4",
"8 c LightGray",
"9 c #FFE8CC",
"0 c #DBE6EB",
"q c None",
/* pixels */
"qqqqqqqqqqqqqqqqqqqqqqqqqqqqqqqqq",
"qqqqqqqq@@@o@@@&<<&&@ooqqqqqqqqqq",
"qqqqqqq@<<o&<&@@33<<&&@oqqqqqqqqq",
"qqqqqo@<&<&<<<<&@&<&@oo@oqqqqqqqq",
"qqqqqqo@<3<33&3&&@@33&@ooqqqqqqqq",
"qqqqqq@<&<@&<o&<@&&@@3&@ooqqqqqqq",
"qqqqq@&o@&o@&5@<&@@o&&<&@oqqqqqqq",
"qqqqqoqoo@5o599@<&o3&@&<&@oqqqqqq",
"qqqqqqq ;o959999@&o3<o@&<&oqqqqqq",
"qqqqqqq -59999995@&<<&o@&<&oqqqqq",
"qqqqqqqq 699---:6o&<&<&o@@&&oqqqq",
"qqqqqqqq 666##1:64@<&o@@ooooqqqqq",
"qqqqqqqq 666##8:66@&<@o@@@oqqqqqq",
"qqqqqqqq 666==8699;@&<&@@@oqqqqqq",
"qqqqqqqq 999==8999:ooo@@@oqqqqqqq",
"qqqqqqqq 999999999:o@@&&oqqqqqqqq",
"qqqqqqqq :99999996-oo@&<o@qqqqqqq",
"qqqqqqqqq :699996-..o@@&<&@qqqqqq",
"qqqqqqqqqq  -----*$OOoo@@@qqqqqqq",
"qqqqqqqqqqXO$***OXXOXXXqqqqqqqqqq",
"qqqqqqqqqqqXXXXXXOO$*OXqqqqqqqqqq",
"qqqqqqqqqqqOO$$$OO$***OXqqqqqqqqq",
"qqqqqqqqqqXO$*$OXXOO**$Xqqqqqqqqq",
"qqqqqqqqqqX$**X:$O**O$$Xqqqqqqqqq",
"qqqqqqqqqqXO$$X6$X**$$OXqqqqqqqqq",
"qqqqqqqqqqqXOO :OXO$OX qqqqqqqqqq",
"qqqqqqqqqqqq%>> OXXXX qqqqqqqqqqq",
"qqqqqqqqqqqq%%>77>>%%%qqqqqqqqqqq",
"qqqqqqqqqqqqq%%>>>%%+ qqqqqqqqqqq",
"qqqqqqqqqqqqqq,202,,+qqqqqqqqqqqq",
"qqqqqqqqqqqqqq+++++++qqqqqqqqqqqq",
"qqqqqqqqqqqqqq ,22, qqqqqqqqqqqqq",
"qqqqqqqqqqqqqqqqqqqqqqqqqqqqqqqqq"
};
