/* XPM */
static char *b3af389350974f4188fd463cb52f227blbgqeLpCfqaaTa4C[] = {
/* columns rows colors chars-per-pixel */
"33 33 27 1 ",
"  c black",
". c #1A242B",
"X c #262926",
"o c #29303B",
"O c #3B3838",
"+ c #6B1717",
"@ c #36384A",
"# c #1F3069",
"$ c #504C4C",
"% c #545959",
"& c #4F526B",
"* c #A33333",
"= c #875844",
"- c #D4997A",
"; c #47668F",
": c #7C8383",
"> c #858A8C",
", c gray58",
"< c #A3ABAF",
"1 c #B0B8BA",
"2 c #C49FA5",
"3 c #FFCFB0",
"4 c #82ADD4",
"5 c LightGray",
"6 c #FFE8CC",
"7 c #DBE6EB",
"8 c None",
/* pixels */
"888888888888888888888888888888888",
"888888888888OOOXXOOOO888888888888",
"8888888888OO%%OX%>>%%OX8888888888",
"888888888O%>%OOO%OO>%>%X888888888",
"88888888O%>O%>>%O%%OO1>%X88888888",
"8888888XXO%11>>>>%>>1OOXXX8888888",
"8888888O%%>O%>%>>%%%>>%X%O8888888",
"888888O%XXO>1O%1O%1O%OX>>%O888888",
"888888X%>O%1O2O%XO>X%%OOOOX888888",
"888888XOO%>O262O2XO2O%%XOOX888888",
"88888XO%O>O2666262X62O%X%OOX88888",
"8888XXO>X%266666666662OX>%XXX8888",
"888O%%>>%X3===66666===3X%>>%OO888",
"8888XO%%O33,++33333++,33O%%OX8888",
"88888XOX -35++33333++53- XOX88888",
"8888XOO  -35**33333**53-  OOX8888",
"8888XO%X =35**66666**53= X%OX8888",
"88888XOX  -36666666663- oXOX88888",
"8888888.o.=-366666663-=o@o.888888",
"888888.@@o.o=--333--==.@@@o.88888",
"88888.@&&@.o@o=====o@o.o@@@.88888",
"88888.@@&@..o@&&&&@@o.o.o@oo.8888",
"8888.o@&@..oooo...oo@oo.ooooo8888",
"8888.o@&&@o o@@&&&@@@@ ..oooo8888",
"88888.o&&--=o@&&&&&@@o 8.o@@.8888",
"888888 o.36=#.o@@@oo.##8 ==o 8888",
"8888888 .3- #;##;;44;;#8 --  8888",
"88888888   #### #;;;;##88   88888",
"888888888888### $<77:$ 8888888888",
"888888888888 $$ <$$$: 88888888888",
"8888888888888   $<7<$ 88888888888",
"8888888888888888 $$ 8888888888888",
"888888888888888888888888888888888"
};
