/* XPM */
static char *cGxheWVyX2Uy[] = {
/* columns rows colors chars-per-pixel */
"33 33 30 1 ",
"  c black",
". c gray8",
"X c #1A242B",
"o c #262926",
"O c #29303B",
"+ c #303430",
"@ c #3B3838",
"# c #6B1717",
"$ c #36384A",
"% c #1F3069",
"& c #545959",
"* c #4F526B",
"= c #A33333",
"- c #875844",
"; c #AF787D",
": c #D4997A",
"> c #47668F",
", c #7C8383",
"< c #858A8C",
"1 c gray58",
"2 c #A3ABAF",
"3 c #B0B8BA",
"4 c #C49397",
"5 c #C49FA5",
"6 c #FFCFB0",
"7 c #82ADD4",
"8 c LightGray",
"9 c #FFE8CC",
"0 c #DBE6EB",
"q c NONE",
/* pixels */
"qqqqqqqqqqqqqoo@@@@@oooqqqqqqqqqq",
"qqqqqqqqqqqoo@&&<<&@@@o@@@qqqqqqq",
"qqqqqqqqqqo@&&<<33@@&<&o<<@qqqqqq",
"qqqqqqqqqo@oo@&<&@&<<<<&<&<@oqqqq",
"qqqqqqqqqoo@&33@@&&3&33<3<@oqqqqq",
"qqqqqqqqoo@&3@@&&@<&o<&@<&<@qqqqq",
"qqqqqqqqo@&<&&o@@&<@5&@o&@o&@qqqq",
"qqqqqqqo@&<&@&3o&<@995o5@ooqoqqqq",
"qqqqqqqo&<&@o<3o&@999959o; qqqqqq",
"qqqqqqo&<&@o&<<&@59999995- qqqqqq",
"qqqqqo&&@@o&<&<&o6:---996 qqqqqqq",
"qqqqqqoooo@@o&<@46:1##666 qqqqqqq",
"qqqqqqqo@@@o@<&@66:8##666 qqqqqqq",
"qqqqqqqo@@@&<&@;9968==666 qqqqqqq",
"qqqqqqqqo@@@ooo:9998==999 qqqqqqq",
"qqqqqqqqqo&&@@o:999999999 qqqqqqq",
"qqqqqqqq@o<&@oo-69999999: qqqqqqq",
"qqqqqqq@&<&@@o..-699996: qqqqqqqq",
"qqqqqqqq@@@ooOO$*-----  qqqqqqqqq",
"qqqqqqqqqqqXXXOXXO***$OXqqqqqqqqq",
"qqqqqqqqqqqXO*$OOXXXXXXqqqqqqqqqq",
"qqqqqqqqqqXO***$OO$$$OOqqqqqqqqqq",
"qqqqqqqqqqX$**OOXXO$*$OXqqqqqqqqq",
"qqqqqqqqqqX$$O**O$:X**$Xqqqqqqqqq",
"qqqqqqqqqqXO$$**X$6X$$OXqqqqqqqqq",
"qqqqqqqqqqq XO$OXO: OOXqqqqqqqqqq",
"qqqqqqqqqqqq XXXXO >>%qqqqqqqqqqq",
"qqqqqqqqqqqq%%%>>77>%%qqqqqqqqqqq",
"qqqqqqqqqqqq +%%>>>%%qqqqqqqqqqqq",
"qqqqqqqqqqqqq+,,202,qqqqqqqqqqqqq",
"qqqqqqqqqqqqq+++++++qqqqqqqqqqqqq",
"qqqqqqqqqqqqqq ,22, qqqqqqqqqqqqq",
"qqqqqqqqqqqqqqqqqqqqqqqqqqqqqqqqq"
};
