/* XPM */
static char *_038f88786aa4916e669a3e379d70943q1lr5exyt3AANWev[] = {
/* columns rows colors chars-per-pixel */
"33 33 18 1 ",
"  c black",
". c #1A242B",
"X c #262926",
"o c #29303B",
"O c #3B3838",
"+ c #36384A",
"@ c #1F3069",
"# c #504C4C",
"$ c #545959",
"% c #4F526B",
"& c #47668F",
"* c #7C8383",
"= c #858A8C",
"- c #A3ABAF",
"; c #B0B8BA",
": c #82ADD4",
"> c #DBE6EB",
", c None",
/* pixels */
",,,,,,,,,,,,,,,,,,,,,,,,,,,,,,,,,",
",,,,,,,,,,,,OOOXXOOOO,,,,,,,,,,,,",
",,,,,,,,,,OO$$OXO$$$$OX,,,,,,,,,,",
",,,,,,,,,O$===$O$=;=$=$X,,,,,,,,,",
",,,,,,,,O$=;;==$=;;$;;=$X,,,,,,,,",
",,,,,,,XX===;;$O$====$OOXX,,,,,,,",
",,,,,,,O$;;====$======;=$O,,,,,,,",
",,,,,,O$=;==========$$$==$O,,,,,,",
",,,,,,X====;======$====$$OX,,,,,,",
",,,,,,XO$=;;;=;====$=;==OXX,,,,,,",
",,,,,XO$=;=;;=;;=;;=$;;=$OOX,,,,,",
",,,,XO$=;====$;;=;;=$==$=$XXX,,,,",
",,,O$$===$===$==$===$$==$==$OO,,,",
",,,,XO$=$===O===$$==$O$==$$OX,,,,",
",,,,,XOO$;=O=;==O$=;=OOO==OX,,,,,",
",,,,XOO$;=$O;==$XO$;=$OO$=OOX,,,,",
",,,,XOO$=$$$=$$O$XO==$O$O$$OX,,,,",
",,,,,XO$X$O$=$O$$XO=$$X$OXOX,,,,,",
",,,,,,XOX$XO$$O$$OO$$OXOXXX,,,,,,",
",,,,,,.XXOXXOOX$OOO$$OOX+o.,,,,,,",
",,,,,.o%%XXXXOXOOXO$OXX+++o.,,,,,",
",,,,,.+%%+oXXXXXOXXXXoo++++.,,,,,",
",,,,,o+++o.oo+XXXXX+oo.o+++o,,,,,",
",,,,,.ooo..oo+%%%%%+oo..ooo.,,,,,",
",,,,,....  o+++%%%%++o  ....,,,,,",
",,,,,,   ...oo+++++oo...   ,,,,,,",
",,,,,,,,, @@&::&&&::&@@ ,,,,,,,,,",
",,,,,,,,, @@&::&@&::&@@ ,,,,,,,,,",
",,,,,,,,,,@@@&&@ @&&@@@,,,,,,,,,,",
",,,,,,,,,,#@&&@# #@&&@#,,,,,,,,,,",
",,,,,,,,,,#-->>* *>>--#,,,,,,,,,,",
",,,,,,,,,,,#####,#####,,,,,,,,,,,",
",,,,,,,,,,, *** , *** ,,,,,,,,,,,"
};
