/* XPM */
static char *_063cfa826ce4c5cf445ff7a421716d35nbvLn2CB3qno5H4[] = {
/* columns rows colors chars-per-pixel */
"33 33 28 1 ",
"  c black",
". c #1A242B",
"X c #262926",
"o c #29303B",
"O c #303430",
"+ c #3B3838",
"@ c #6B1717",
"# c #36384A",
"$ c #1F3069",
"% c #504C4C",
"& c #545959",
"* c #4F526B",
"= c #A33333",
"- c #875844",
"; c #D4997A",
": c #47668F",
"> c #7C8383",
", c #858A8C",
"< c gray58",
"1 c #A3ABAF",
"2 c #B0B8BA",
"3 c #C49FA5",
"4 c #FFCFB0",
"5 c #82ADD4",
"6 c LightGray",
"7 c #FFE8CC",
"8 c #DBE6EB",
"9 c None",
/* pixels */
"999999999999+++XX++++999999999999",
"9999999999++&&+X&,,&&+X9999999999",
"999999999+&,&+++&++,&,&X999999999",
"99999999+&,+&,,&+&&++2,&X99999999",
"9999999XX+&22,,,,&,,2++XXX9999999",
"9999999+&&,+&,&,,&&&,,&X&+9999999",
"999999+&XX+,2+&2+&2+&+X,,&+999999",
"999999X&,+&2+3+&X+,X&&++++X999999",
"999999X++&,+373+3X+3+&&X++X999999",
"99999X+&+,+3777373X73+&X&++X99999",
"9999XX+,X&377777777773+X,&XXX9999",
"999+&&,,&X4---77777---4X&,,&++999",
"9999X+&&+44<@@44444@@<44+&&+X9999",
"99999X+X ;46@@44444@@64; X+X99999",
"9999X++  ;46==44444==64;  ++X9999",
"9999X+&X -46==77777==64- X&+X9999",
"99999X+X. ;47777777774; .X+X99999",
"999999..o.-;477777774;-.o..999999",
"99999.o##o.o-;;444;;--.o##o.99999",
"9999.o###o.o#o-----o#o.o###o.9999",
"9999.oo##oo.o#****##o.oo##oo.9999",
"999.o##o..oo#oo...oo#oo..o##o.999",
"999.##.#o o###*****###o o#.##.999",
"999.o.#o4;.o#*******#o.;4o#.o.999",
"9999..oo7;..o######oo..;7oo..9999",
"99999...;  $$$$$$$$$$$  ;...99999",
"999999   9$:5:$:::$:5:$9   999999",
"9999999999$:5::$ $::5:$9999999999",
"9999999999>$::$> >$::$>9999999999",
"9999999999%1881%O%1881%9999999999",
"9999999999OO%%OO9OO%%OO9999999999",
"99999999999 11% 9 %11 99999999999",
"9999999999XXX+++++XX9999999999999"
};
