/* XPM */
static char *corner_top_right1683119106[] = {
/* columns rows colors chars-per-pixel */
"32 32 10 1 ",
"  c #1C2123",
". c #273034",
"X c #333C40",
"o c #49565C",
"O c #576369",
"+ c #696A6A",
"@ c #8198A3",
"# c #A1BECC",
"$ c #CEE0E9",
"% c #E3EEF3",
/* pixels */
"%%%%%%%%%%%%%%%%%%%%%%%%%%%%%+++",
"$$$$$$$$$$$$$$$$$$$$$$$$$$$$$%++",
"$$$$$$$$$$$$$$$$$$$$$$$$$$$$$$%+",
"$$$$$$$$$$$$$$$$$$$$$$$$$$$$$$%+",
"#########################$$$$$%+",
"@@@@@@@@@@@@@@@@@@@@@@@@@#$$$$%+",
"                        @@#$$$%+",
" ooooooooooooooooooooooo @#$$$%+",
" XXXXXXXXXXXXXXXXXXXXXXo @#$$$%+",
" X  X  X  X  XXXXXXooooo @#$$$%+",
" X  X  X  X  XXXXXoOOOOo @#$$$%+",
" XooXooXooXooXXXXo XXXOo @#$$$%+",
" XXXXXXXXXXXXXXXXo    Oo @#$$$%+",
" XooXooXooXooXXXXo  o Oo @#$$$%+",
" XX XX XX XX XXXoo  o Oo @#$$$%+",
" XXXXXXXXXXXXXXX      Oo @#$$$%+",
"                 XXXX  o @#$$$%+",
" oooooooO       XXXXXXXo @#$$$%+",
" ..X..X.o       XXoooooo @#$$$%+",
" .X..X..o     oooXo XXXo @#$$$%+",
"   OOO.Xo    oXXoXo XXXo @#$$$%+",
"    ooX.o    XXXoXo XXXo @#$$$%+",
"    oo..o    XX oXoooooo @#$$$%+",
"    oo.Xo    XX oXXXXXXo @#$$$%+",
"    ooX.o    XX oXoooooo @#$$$%+",
"    oo..o    XX oXXXXXXo @#$$$%+",
"    oo.Xo    XX oXo    o @#$$$%+",
"    ooX.o    XX oXo    o @#$$$%+",
"    oo..o    XX oXXXXXXo @#$$$%+",
"    oo.Xo    XX oXXXXXXo @#$$$%+",
"    ooX.o    XX XXXXXXXo @#$$$%+",
"    oo..o    XX XXXXXXXo @#$$$%+"
};
