/* XPM */
static char *corner_bottom_left1683119105[] = {
/* columns rows colors chars-per-pixel */
"32 32 14 1 ",
"  c #1C2123",
". c #273034",
"X c #333C40",
"o c #335B57",
"O c gray30",
"+ c #49565C",
"@ c #5D717B",
"# c #687A82",
"$ c #378980",
"% c #61ADA5",
"& c #8198A3",
"* c #A1BECC",
"= c #CEE0E9",
"- c #E3EEF3",
/* pixels */
"-===*&                          ",
"-===*&     XX   XX XX   +       ",
"-===*&    XXXX  XX +# ++        ",
"-===*& +XXXXXXX XX +# ++        ",
"-===*& + XX++XX XX +#   +       ",
"-===*& + X+  +X XX +X ++  +.... ",
"-===*& + X    X XX +# ++  +XXXX ",
"-===*& + X+  +X XX +X   +   ++  ",
"-===*& + X    X XX +X ++  +.... ",
"-===*& + X+  +X XX +X ++  +XXXX ",
"-===*& +XXXXXXX XX +X   +   ++  ",
"-===*& +XXXXXXX XX +X ++  +.... ",
"-===*& +XX + +X+XX +X ++  +XXXX ",
"-===*& +XX + +X X++XX   +       ",
"-===*& +XX + +X XX XX           ",
"-===*&                          ",
"-===*&XXXOoooooooooooooooooooooo",
"-===*&@@@Ooooooooooooooooooooooo",
"-===*&@@@Ooooooooooooooooooooooo",
"-===*&@@@O$$$$$$$$$$$$$$$$$$$$$$",
"-===*&@@@O$$$$$$$$$$$$$$$$$$$$$$",
"-===*&@@@O$$$$$$$$$$$$$$$$$$$$$$",
"-===*&@@@O%%%%%%%%%%%%%%%%%%%%%%",
"-===*&@@@OOOOOOOOOOOOOOOOOOOOOOO",
"-===*&@@O@@@@@@@@@@@@@@@@@@@@@@@",
"-===*&@O@@@@@@@@@@@@@@@@@@@@@@@@",
"-===*&O@@@@@@@@@@@@@@@@@@@@@@@@@",
"-===*&&&&&&&&&&&&&&&&&&&&&&&&&&&",
"-===&***************************",
"-=**============================",
"-**=============================",
"--------------------------------"
};
