/* XPM */
static char *corner_bottom_right1683119107[] = {
/* columns rows colors chars-per-pixel */
"32 32 14 1 ",
"  c #1C2123",
". c #273034",
"X c #333C40",
"o c #335B57",
"O c gray30",
"+ c #49565C",
"@ c #5D717B",
"# c #696A6A",
"$ c #378980",
"% c #61ADA5",
"& c #8198A3",
"* c #A1BECC",
"= c #CEE0E9",
"- c #E3EEF3",
/* pixels */
"                         &*===-#",
"        +    XX XXXX XX+ &*===-#",
"         ++  XX          &*===-#",
"        +    XX XXXX XX+ &*===-#",
"         ++  XX XX++ XX+ &*===-#",
" .....+ +    XX X+   XX+ &*===-#",
" XXXXX+  ++  XX + +++XX+ &*===-#",
"        +    XX X+   XX+ &*===-#",
" .....+  ++  XX + +++XX+ &*===-#",
" XXXXX+ +    XX X+   XX+ &*===-#",
"             XX + XXXXX+ &*===-#",
" .....+      XX +XXXXXX+ &*===-#",
" XXXXX+      X++++ + XX+ &*===-#",
"             X  X+ + XX+ &*===-#",
"                X+ + XX+ &*===-#",
"                         &*===-#",
"oooooooooooooooooooooOXXX&*===-#",
"oooooooooooooooooooooO@@@&*===-#",
"oooooooooooooooooooooO@@@&*===-#",
"$$$$$$$$$$$$$$$$$$$$$O@@@&*===-#",
"$$$$$$$$$$$$$$$$$$$$$O@@@&*===-#",
"$$$$$$$$$$$$$$$$$$$$$O@@@&*===-#",
"%%%%%%%%%%%%%%%%%%%%%O@@@&*===-#",
"OOOOOOOOOOOOOOOOOOOOOO@@@&*===-#",
"@@@@@@@@@@@@@@@@@@@@@@O@@&*===-#",
"@@@@@@@@@@@@@@@@@@@@@@@O@&*===-#",
"@@@@@@@@@@@@@@@@@@@@@@@@O&*===-#",
"&&&&&&&&&&&&&&&&&&&&&&&&&&*===-#",
"**************************&===-#",
"===========================**=-#",
"============================**-#",
"-------------------------------#"
};
