/* XPM */
static char *floor81683119186[] = {
/* columns rows colors chars-per-pixel */
"32 32 9 1 ",
"  c #1C2123",
". c #273034",
"X c #333C40",
"o c #49565C",
"O c #576369",
"+ c #8198A3",
"@ c #A1BECC",
"# c #CEE0E9",
"$ c #E3EEF3",
/* pixels */
"$$$$$$$$$$$$$$$$$$$$$$$$$$$$$$$$",
"################################",
"################################",
"################################",
"@@@@@@@@@@@@@@@@@@@@@@@@@@@@@@@@",
"++++++++++++++++++++++++++++++++",
"                                ",
"oo  X  ooooooooooooooooooooooooo",
"XX  X  XXXXXXXXXXXX  XoXXXXXXX X",
"XX  X  XXXXXXXXXXXX  XoXXXXXXX X",
"XX  X        XXXXXX  XoXXXXXXXXX",
"XX  X  ooo o X XXXX  XoXXXXXXXXX",
"XX  X  XXX X X XXXXooXoXX    XXX",
"XXXXX  XXX X XoXXXXXXXoXXooooXXX",
"XXooo        XXXXXXXXXoXXXXXXX X",
"       XXXXXXXXXXooooXoXXXXXXXoX",
"                                ",
"  OXX                           ",
" X.O.X oooooooooooooooooooooooO ",
" .O..X .......................o ",
" ..OXXX.   ...................o ",
" .O.XXX.   ..ooooooooooooooO..o ",
" ooOOO .ooo..              ...o ",
"       ...... ................o ",
"       ...... ................o ",
"                                ",
"                                ",
"                                ",
"                                ",
"                                ",
"                                ",
"                                "
};
