/* XPM */
static char *floor51683119185[] = {
/* columns rows colors chars-per-pixel */
"32 32 15 1 ",
"  c #1C2123",
". c #273034",
"X c #2F373B",
"o c #333C40",
"O c #424F54",
"+ c #49565C",
"@ c #576369",
"# c #65757D",
"$ c #687A82",
"% c #8198A3",
"& c #A1BECC",
"* c #AFCDDB",
"= c #B5D6E6",
"- c #CEE0E9",
"; c #E3EEF3",
/* pixels */
";;;;;;;;;;;;;;;;;#;;;;;;;#;;;;;;",
"-----------------#-------#------",
"-----------------#-------#------",
"----------------;#------;#------",
"&&&&&&&&&&&&&&&&=O&&&&&&=O&&&&&&",
"%%%%%%%%%%%%%%%%*X%%%%%%*X%%%%%%",
"                                ",
"++++++  +++++++++++ +++++++++++ ",
"o oo+o  o ooooooooo ooooooooooo ",
"o oo+o  o oo++++ooo ooooooooooo ",
"oooo+o  o oo    ooo    + + oo   ",
"oooooo  o ooooooooo o+ + + oo++ ",
"o oo+o+ oooooo      o+ + + oo   ",
"o+ooooooooo   ooooo oo+ + + o++ ",
"ooooooooooooooooooo ooo+o+o+ooo ",
"ooooooooooooooooooo ooooooooooo ",
"                                ",
"  + + + + +       oooooooooooo  ",
" + + + + + +     o.. .... ..... ",
"  + + + + +     oo. .    .    . ",
"                oo. .... .... . ",
" $$  $$  $$  $$  o. .+++ .+++ . ",
" oo++oo++oo++oo  @@++@@@++@@@++ ",
" oo++oo++oo++oo                 ",
" oooooooooooooo                 ",
"                                ",
"                                ",
"                                ",
"                                ",
"                                ",
"                                ",
"                                "
};
