/* XPM */
static char *floor61683119185[] = {
/* columns rows colors chars-per-pixel */
"32 31 9 1 ",
"  c #1C2123",
". c #273034",
"X c #333C40",
"o c #49565C",
"O c #576369",
"+ c #687A82",
"@ c #8198A3",
"# c #A1BECC",
"$ c #CEE0E9",
/* pixels */
"$$$$$$$$$$$$$$$$$$$$$$$$$$$$$$$$",
"$$$$$$$$$$$$$$$$$$$$$$$$$$$$$$$$",
"$$$$$$$$$$$$$$$$$$$$$$$$$$$$$$$$",
"################################",
"@@@@@@@@@@@@@@@@@@@@@@@@@@@@@@@@",
"                                ",
" ooooooooooo ooooooooooo  oooooo",
" XXXXXXXXXXX XXXXXXXXX X  XoXX X",
" XXXXXXXXXXX XXXooooXX X  XoXX X",
"   XX o o    XXX    XX X  XoXXXX",
" ooXX o o oX XXXXXXXXX X  XXXXXX",
"   XX o o oX      XXXXXX oXoXX X",
" ooX o o oXX XXXXX   XXXXXXXXXoX",
" XXXoXoXoXXX XXXXXXXXXXXXXXXXXXX",
" XXXXXXXXXXX XXXXXXXXXXXXXXXXXXX",
"                                ",
"       o o o o  o o o           ",
"      o o o o o + + +    oo oo  ",
"                         X. X.  ",
"   oo                    X. X.  ",
"   X.    ++  ++  ++  ++  X. X.  ",
"   X.    XXooXXooXXooXX OOO     ",
"   X.    XXooXXooXXooXXOOO      ",
"   X.    XXXXXXXXXXXXXX         ",
"                                ",
"                                ",
"                                ",
"                                ",
"                                ",
"                                ",
"                                "
};
