/* XPM */
static char *floor71683119186[] = {
/* columns rows colors chars-per-pixel */
"32 32 14 1 ",
"  c #1C2123",
". c #273034",
"X c #2F373B",
"o c #333C40",
"O c #424F54",
"+ c #49565C",
"@ c #576369",
"# c #65757D",
"$ c #8198A3",
"% c #A1BECC",
"& c #AFCDDB",
"* c #B5D6E6",
"= c #CEE0E9",
"- c #E3EEF3",
/* pixels */
"----------------------#-------#-",
"======================#=======#=",
"======================#=======#=",
"=====================-#======-#=",
"%%%%%%%%%%%%%%%%%%%%%*O%%%%%%*O%",
"$$$$$$$$$$$$$$$$$$$$$&X$$$$$$&X$",
"                                ",
" ++++++++++++++++++++++++  +++++",
" o ooooooooooooooooo+oooo  oo+oo",
" o ooo++o++o++oooooo+oo++  oo+oo",
" ooooo  o  o  oooooo+oo    oo+oo",
" oooooooooooooooo  o+oooo  oo+oo",
" o ooo        ooo++o+oo++  oo+oo",
" o+ooo ++++++ oooooo+oo    ooooo",
"                     oooo    +oo",
" oooooooooooooooooooooooo  oo   ",
"                                ",
"   ..+  ..+  ..+   ++           ",
"  oo....o....o.@@  @++   ++++++ ",
"  o.oooo.oooo.o@.   @++ +.....+ ",
"  o@@@@@@@@@@@@@.    @++...@@.+ ",
"  o@oooo@oooooo@.     +.... @.+ ",
"  @@@+ @@@+ @@@@+    +.. .   .+ ",
"   oo   oo   oo     +...@.@@@.+ ",
"   oo   oo   oo     +.........+ ",
"                                ",
"                                ",
"                                ",
"                                ",
"                                ",
"                                ",
"                                "
};
