/* XPM */
static char *floor11683119184[] = {
/* columns rows colors chars-per-pixel */
"32 32 10 1 ",
"  c #1C2123",
". c #273034",
"X c #333C40",
"o c #49565C",
"O c #576369",
"+ c #687A82",
"@ c #8198A3",
"# c #A1BECC",
"$ c #CEE0E9",
"% c #E3EEF3",
/* pixels */
"%%%%%%%%%%%%%%%%%%%%%%%%%%%%%%%%",
"$$$$$$$$$$$$$$$$$$$$$$$$$$$$$$$$",
"$$$$$$$$$$$$$$$$$$$$$$$$$$$$$$$$",
"$$$$$$$$$$$$$$$$$$$$$$$$$$$$$$$$",
"################################",
"@@@@@@@@@@@@@@@@@@@@@@@@@@@@@@@@",
"                                ",
" oooooooooooooooooooooooooooooo ",
" XXXXXXXXXXXXXXXXXXXXXXXXXXXXXX ",
" XXXXXXXXXXXXXXoXo XXXX XXX X X ",
" X X  XXX    XXoX oXXX o XX X X ",
" XoXooXXXooooXXoXXXXX ooo XXXXX ",
" XXXXXXXXXXXXXXoXo XXX o XX   X ",
" XXXXXXXXXXXXXXXXXXXXXX XXXXXXX ",
"                        XXX   X ",
" XXXXXXXXXXXXXXXXXXXXXXXXXXXXXX ",
"                                ",
" +   o o o o  o o o    oo oo    ",
"  o o o o o o + + +    X. X.OOOO",
"                       X. X.    ",
" oo                    X. X.    ",
" X.    ++  ++  ++  ++  X. X.    ",
" X.    XXooXXooXXooXX OOO       ",
" X.    XXooXXooXXooXXOOO        ",
" X.    XXXXXXXXXXXXXX           ",
"                                ",
"                                ",
"                                ",
"                                ",
"                                ",
"                                ",
"                                "
};
