/* XPM */
static char *floor21683119184[] = {
/* columns rows colors chars-per-pixel */
"32 32 14 1 ",
"  c #1C2123",
". c #273034",
"X c #2F373B",
"o c #333C40",
"O c #424F54",
"+ c #49565C",
"@ c #576369",
"# c #65757D",
"$ c #8198A3",
"% c #A1BECC",
"& c #AFCDDB",
"* c #B5D6E6",
"= c #CEE0E9",
"- c #E3EEF3",
/* pixels */
"-----#-------#------------------",
"=====#=======#==================",
"=====#=======#==================",
"====-#======-#==================",
"%%%%*O%%%%%%*O%%%%%%%%%%%%%%%%%%",
"$$$$&X$$$$$$&X$$$$$$$$$$$$$$$$$$",
"                                ",
" ++++++++++++++++++++++++++++++ ",
" o oooo oooooooooooooooo oooo o ",
" o oooo oooooooooooooooo oooo o ",
" oooooo oooooooooooooooo oooooo ",
" ooooooo                ooooooo ",
" ooooooo++++++++++++++++ooooooo ",
" oooooooooooooooooooooooooooooo ",
" o oooooooooooooooooooooooooo o ",
" o+oooooooooooooooooooooooooo+o ",
"                                ",
" oo   oo   oo                   ",
"o... o... o...   @++++++++++++++",
"o... o... o...   +..............",
"o..oooo.oooo..   +..............",
"o..oooo.oooo..   +..@+++++++++++",
"@@++ @@++ @@++   +...           ",
"                 +..............",
"                 +..............",
"                                ",
"                                ",
"                                ",
"                                ",
"                                ",
"                                ",
"                                "
};
