/* XPM */
static char *floor31683119185[] = {
/* columns rows colors chars-per-pixel */
"32 32 9 1 ",
"  c #1C2123",
". c #273034",
"X c #333C40",
"o c #49565C",
"O c #576369",
"+ c #8198A3",
"@ c #A1BECC",
"# c #CEE0E9",
"$ c #E3EEF3",
/* pixels */
"$$$$$$$$$$$$$$$$$$$$$$$$$$$$$$$$",
"################################",
"################################",
"################################",
"@@@@@@@@@@@@@@@@@@@@@@@@@@@@@@@@",
"++++++++++++++++++++++++++++++++",
"                                ",
"ooooooooooooooooooooooooo  X  oo",
"X XXXXXXXoX  XXXXXXXXXXXX  X  XX",
"X XXXXXXXoX  XXXXXXXXXXXX  X  XX",
"XXXXXXXXXoX  XXXXXX        X  XX",
"XXXXXXXXXoX  XXXX X o ooo  X  XX",
"XXX    XXoXooXXXX X X XXX  X  XX",
"XXXooooXXoXXXXXXXoX X XXX  XXXXX",
"X XXXXXXXoXXXXXXXXX        oooXX",
"XoXXXXXXXoXooooXXXXXXXXXX       ",
"                                ",
"           XX                   ",
"ooooooooo X..XXXXoooooo         ",
"......... X......o.....o        ",
".....   .XXX.....o.OO...o       ",
"ooo..   .XXX.....o.O ....o      ",
"   ..ooo. OOoooooo.   . ..o     ",
".........        o.OOO.O...o    ",
".o.o.....        o.........o    ",
"                                ",
"                                ",
"                                ",
"                                ",
"                                ",
"                                ",
"                                "
};
