/* XPM */
static char *floor101683119186[] = {
/* columns rows colors chars-per-pixel */
"32 32 9 1 ",
"  c #1C2123",
". c #333C40",
"X c #434C4F",
"o c #49565C",
"O c #687A82",
"+ c #8198A3",
"@ c #A1BECC",
"# c #CEE0E9",
"$ c #E3EEF3",
/* pixels */
"$$$$$$$$$$$$$$$$$$$$$$$$$$$$$$$$",
"################################",
"################################",
"################################",
"@@@@@@@@@@@@@@@@@@@@@@@@@@@@@@@@",
"++++++++++++++++++++++++++++++++",
"                                ",
"ooooooo ooooooo ooooooooooooooo ",
"....... ....... ............... ",
"... ... ... ... ... ........... ",
".. o .. .. o .. .. o ...  . . . ",
". ooo . . ooo . . ooo ..oo.o.o. ",
".. o .. .. o .. .. o .......... ",
"...  .. ...  .. ...  .......... ",
"....    ....    ....            ",
"....... ....... ............... ",
"                                ",
" .O.O.O.O.O.O.O.O.O.O .....     ",
"  O O O O O O O O O O           ",
"  ooo ooo ooo ooo ooooooooooo   ",
" o...o...o...o...o........XX.   ",
" o...o...o...o...o........XX.   ",
"  ooo ooo ooo ooo ooooooo.oo.   ",
"                         ....   ",
"                                ",
"                                ",
"                                ",
"                                ",
"                                ",
"                                ",
"                                ",
"                                "
};
