/* XPM */
static char *wall61683119451[] = {
/* columns rows colors chars-per-pixel */
"32 32 14 1 ",
"  c #1C2123",
". c #333C40",
"X c #335B57",
"o c gray30",
"O c #49565C",
"+ c #5D717B",
"@ c #696A6A",
"# c #378980",
"$ c #61ADA5",
"% c #8198A3",
"& c #A1BECC",
"* c #91CBC5",
"= c #CEE0E9",
"- c #E3EEF3",
/* pixels */
"                                ",
"                                ",
"                                ",
"                                ",
"                   OOOOOOOO.... ",
"  OOOOOOOOOO ..         O  O.. O",
" O.......... ..O       O.O. O. .",
" O.O  O OO O ..OOO.... .O.. O.. ",
" O..  . .  . . OOOO    O.O. O. O",
" O.O  O OO O ..OOO.... .O.. O. .",
" O.......... ..O       O.O.O... ",
"  OOOOOOOOOO ..    OOOOOOOO... O",
"                               .",
" OO   OO OO    OO           OO  ",
"    O        O     O O O  O     ",
"                                ",
"XXXXXXXXXXXXXXXXX*XXXXXXXXX*XXXX",
"XXXXXXXXXXXXXXXXX*XXXXXXXXX*XXXX",
"XXXXXXXXXXXXXXXXX*XXXXXXXXX*XXXX",
"#################*#########*####",
"#################***********####",
"################################",
"$$$$$$$$$$$$$$$$$$$$$$$$$$$$$$$$",
"oooooooooooooooooooooooooooooooo",
"+++++++++++++++++++++++++++++++@",
"+++++++++++++++++++++++++++++++@",
"+++++++++++++++++++++++++++++++@",
"%%%%%%%%%%%%%%%%%%%%%%%%%%%%%%%@",
"&&&&&&&&&&&&&&&&&&&&&&&&&&&&&&&@",
"===============================@",
"===============================@",
"-------------------------------@"
};
