/* XPM */
static char *wall51683119451[] = {
/* columns rows colors chars-per-pixel */
"32 32 19 1 ",
"  c #1B1B1B",
". c #1C2123",
"X c #232938",
"o c #333C40",
"O c #335B57",
"+ c gray30",
"@ c #49565C",
"# c #536C7A",
"$ c #5D717B",
"% c #696A6A",
"& c #378980",
"* c #61ADA5",
"= c #8198A3",
"- c #9BADB7",
"; c #A1BECC",
": c #91CBC5",
"> c #C7D1D6",
", c #CEE0E9",
"< c #E3EEF3",
/* pixels */
"................................",
"................................",
"................................",
"................................",
"................................",
"...oo.@.ooo..@oooo@..ooooo.o.@o.",
"...oo.@.oo.@@.oooo.@@.oooo.o.@o.",
"......@.oo.@o......o@.oooo.o.@o.",
"..@@@@.oo.@...@@@@...@.oooo.@oo.",
"..@...ooo.@oo......oo@.oooo.@oo.",
"...ooooo.@....oooo....@.oo.o.@o.",
"...ooooo.@ooo......ooo@.oo.o.@o.",
"...oooo.@.....@@@@.....@.o.o.@o.",
"...oooo.@oooo......oooo@.o.o.@o.",
"................................",
"................................",
"OOO:O:O:OOOX## X X#XOOOOOOOOOOOO",
"OOO:O:O:OOOX##  XX#XOOOOOOOOOOOO",
"OOO:O:O:OOO###   X#XOOOOOOOOOOOO",
"&&&:&:&:&&&#-# XXX#X&&&&&&&&&&&&",
"&&&:&:&::::#-#######&&&&&&&&&&&&",
"&&&:::&&&&&#-------#&&&&&&&&&&&&",
"***********#>>>>>>>#************",
"++++++++++++++++++++++++++++++++",
"$$$$$$$$$$$$$$$$$$$$$$$$$$$$$$$%",
"$$$$$$$$$$$$$$$$$$$$$$$$$$$$$$$%",
"$$$$$$$$$$$$$$$$$$$$$$$$$$$$$$$%",
"===============================%",
";;;;;;;;;;;;;;;;;;;;;;;;;;;;;;;%",
",,,,,,,,,,,,,,,,,,,,,,,,,,,,,,,%",
",,,,,,,,,,,,,,,,,,,,,,,,,,,,,,,%",
"<<<<<<<<<<<<<<<<<<<<<<<<<<<<<<<%"
};
