/* XPM */
static char *wall31683119450[] = {
/* columns rows colors chars-per-pixel */
"32 32 19 1 ",
"  c #1B1B1B",
". c #1C2123",
"X c #232938",
"o c #333C40",
"O c #335B57",
"+ c gray30",
"@ c #49565C",
"# c #536C7A",
"$ c #5D717B",
"% c #696A6A",
"& c #378980",
"* c #61ADA5",
"= c #8198A3",
"- c #9BADB7",
"; c #A1BECC",
": c #91CBC5",
"> c #C7D1D6",
", c #CEE0E9",
"< c #E3EEF3",
/* pixels */
"................................",
"................................",
"................................",
"................................",
"...o.o.@o@.o.@o@.o.@o@.o.oooo...",
"..ooo...@.....@.....@...ooo.oo..",
".ooooo.@@@.o.@@@.o.@@@.ooo.o.oo.",
".o.oooo...ooo...ooo...oo.o@.ooo.",
".o..ooooooooooooooooooo.o.@@ooo.",
".o..oooooooooooooooooooo.oo@.oo.",
".o.oooo.ooooo.ooooo.oo.oooo.o.o.",
".oooo..@ooo..@ooo..@o.o.@@@o.oo.",
"..oo..@oo...@oo...@ooo.ooooooo..",
"...oo@oo...@oo...@ooooooooooo...",
"................................",
"................................",
"OOOOOX## X X#XOOOOOOOOO:OOO:OOOO",
"OOOOOX##  XX#XOOOOOOOOO:OOO:OOOO",
"OOOOOX##   X##OOOOOOOOO:OOO:OOOO",
"&&&&&X-# XXX##&&&&&&&&&:&&&:&&&&",
"&&&&&#-#######&&&&&&&&&:::::&&&&",
"&&&&&#-------#&&&&&&&&&&&&&&&&&&",
"*****#>>>>>>>#******************",
"++++++++++++++++++++++++++++++++",
"$$$$$$$$$$$$$$$$$$$$$$$$$$$$$$$%",
"$$$$$$$$$$$$$$$$$$$$$$$$$$$$$$$%",
"$$$$$$$$$$$$$$$$$$$$$$$$$$$$$$$%",
"===============================%",
";;;;;;;;;;;;;;;;;;;;;;;;;;;;;;;%",
",,,,,,,,,,,,,,,,,,,,,,,,,,,,,,,%",
",,,,,,,,,,,,,,,,,,,,,,,,,,,,,,,%",
"<<<<<<<<<<<<<<<<<<<<<<<<<<<<<<<%"
};
