/* XPM */
static char *wall41683119450[] = {
/* columns rows colors chars-per-pixel */
"32 32 13 1 ",
"  c #1C2123",
". c #333C40",
"X c #335B57",
"o c gray30",
"O c #49565C",
"+ c #5D717B",
"@ c #696A6A",
"# c #378980",
"$ c #61ADA5",
"% c #8198A3",
"& c #A1BECC",
"* c #CEE0E9",
"= c #E3EEF3",
/* pixels */
"                                ",
"                                ",
"                                ",
"                                ",
"  .OO  OOOOOOOOOOO OOOOOOOOOOOO ",
" ..O.  . ......... O........... ",
" ..O.  . ..OOOO... O..OOOOO.... ",
" ..O.  . ..    ... O   ... O... ",
" ....  . ......... ..O  .. O... ",
" ..O.O ......      ..O . . O... ",
" .........   ..... ..O ..  O... ",
" .. .. ........... ..O ...   O. ",
" ..  .  .......... ...OOOOO..O. ",
"  ...........................O. ",
"                                ",
"                                ",
"XXXXXXXXXXXXXXXXXXXXXXXXXXXXXXXX",
"XXXXXXXXXXXXXXXXXXXXXXXXXXXXXXXX",
"XXXXXXXXXXXXXXXXXXXXXXXXXXXXXXXX",
"################################",
"################################",
"################################",
"$$$$$$$$$$$$$$$$$$$$$$$$$$$$$$$$",
"oooooooooooooooooooooooooooooooo",
"+++++++++++++++++++++++++++++++@",
"+++++++++++++++++++++++++++++++@",
"+++++++++++++++++++++++++++++++@",
"%%%%%%%%%%%%%%%%%%%%%%%%%%%%%%%@",
"&&&&&&&&&&&&&&&&&&&&&&&&&&&&&&&@",
"*******************************@",
"*******************************@",
"===============================@"
};
