/* XPM */
static char *wall121683119452[] = {
/* columns rows colors chars-per-pixel */
"32 32 14 1 ",
"  c #1C2123",
". c #333C40",
"X c #335B57",
"o c gray30",
"O c #49565C",
"+ c #5D717B",
"@ c #696A6A",
"# c #378980",
"$ c #61ADA5",
"% c #8198A3",
"& c #A1BECC",
"* c #91CBC5",
"= c #CEE0E9",
"- c #E3EEF3",
/* pixels */
"                                ",
"                                ",
"                                ",
"                                ",
"                                ",
".O OOOOOOOOOOOOO O O O ..... ...",
".O O.OOOOOO..O.O O O O ..... ...",
".O O............ . . O ..... ...",
".O O   ... O.....   OO .. OO OO ",
".. ..O  .. O.... OOOO ..  O. OO ",
".. ..O . . O... OO   ..  O..    ",
"   ..O ..  O... O ..... O..  ...",
"   ...OOOOO..O. O .... O..      ",
".. ..........O. O .... O.... OO ",
"                                ",
"                                ",
"XX*X*XXXX*XX*X*XX*X*XX*XXXXXXXXX",
"XX*X*XXXX*XX*X*XX*X*XX*XXXXXXXXX",
"XX*X*XXXX*XX*X*XX*X*XX*XXXXXXXXX",
"##*#*####*##*#*##*#*##*#########",
"##*#*####*##*#*##*#*##*#########",
"##***####****#****#****#########",
"$$$$$$$$$$$$$$$$$$$$$$$$$$$$$$$$",
"oooooooooooooooooooooooooooooooo",
"+++++++++++++++++++++++++++++++@",
"+++++++++++++++++++++++++++++++@",
"+++++++++++++++++++++++++++++++@",
"%%%%%%%%%%%%%%%%%%%%%%%%%%%%%%%@",
"&&&&&&&&&&&&&&&&&&&&&&&&&&&&&&&@",
"===============================@",
"===============================@",
"-------------------------------@"
};
