/* XPM */
static char *wall41683119345[] = {
/* columns rows colors chars-per-pixel */
"32 32 16 1 ",
"  c #1C2123",
". c #273034",
"X c #2F373B",
"o c #333C40",
"O c #424F54",
"+ c #49565C",
"@ c #576369",
"# c #696A6A",
"$ c #65757D",
"% c #687A82",
"& c #8198A3",
"* c #A1BECC",
"= c #AFCDDB",
"- c #B5D6E6",
"; c #CEE0E9",
": c #E3EEF3",
/* pixels */
"         +++...          &*;;;:#",
"       ..@@oo.@    o +o+ &*;;;:#",
"       oo@.oo@.  + o +o+ &*;;;:#",
"         @..o@o  + oooo+ &*;;;:#",
"          ooo@   + o +o+ &*;;;:#",
"         +++o@.  + o +o+ &*;;;:#",
"       ..@@oo@@  + oooo+ &*;;;:#",
"       oo@.oo@.  + o +o+ &*;;;:#",
"         @..o@o    o +o+ &*;;;:#",
"          ooo@   oooooo+ &*;;;:#",
"         +++o@.  oooooo+ &*;;;:#",
"       ..@@oo.@  oooooo+ &*;;;:#",
"       oo@.oo..  + oo  + &*;;;:#",
"         @..ooo  oooooo+ &*;;;:#",
"                         &*;;;:#",
"                ooooooo+ &*;;;:#",
"          ....+ o+ oo  + &*;;;:#",
"          oooo+ ooooooo+ &*;;;:#",
"                ooooooo+ &*;;;:#",
"         @....+ oo+o++++ &*;;;:#",
"        @@oooo+ ooooooo+ &*;;;:#",
"        @@      oo+      &*;;;:#",
"        @       oo       &*;;;:#",
"       ooo%%    ooooooo+ XO$$$$#",
"       ooo%%    ooo    + =-:;;:#",
"       o++    % ooooooo+ &*;;;:#",
"       o++      o ooooo+ &*;;;:#",
"       ooo%%  % o oo +o+ &*;;;:#",
"       ooo%%    o oo +o+ &*;;;:#",
"       +++    % oo o +o+ &*;;;:#",
"                oo o +o+ XO$$$$#",
"                         =-:;;:#"
};
