/* XPM */
static char *wall21683119345[] = {
/* columns rows colors chars-per-pixel */
"32 32 10 1 ",
"  c #1C2123",
". c #273034",
"X c #333C40",
"o c #49565C",
"O c #576369",
"+ c #696A6A",
"@ c #8198A3",
"# c #A1BECC",
"$ c #CEE0E9",
"% c #E3EEF3",
/* pixels */
"                         @#$$$%+",
"      ooooooO  XXXXXXXXo @#$$$%+",
"      ......o  o XXXX  o @#$$$%+",
"      ......o  XXXXXXXXo @#$$$%+",
"      ...O..o  XXo XXXXo @#$$$%+",
"      .. o..o  XXo XXXXo @#$$$%+",
"      .. o..o  XXo XXXXo @#$$$%+",
"      .. o..o  XXo XXXXo @#$$$%+",
"      .. o..o  XXXXXXXXo @#$$$%+",
"      .. o..o  ooooooooo @#$$$%+",
"      .. o..o  X XXo XXo @#$$$%+",
"      .. o..o  X XXo XXo @#$$$%+",
"      .. o..o  X XXo XXo @#$$$%+",
"      .. o..o  X XXo X o @#$$$%+",
"      .. o..o  X     XXo @#$$$%+",
"      .. o..o  X XXo X o @#$$$%+",
"      .. o..o  X XXo X o @#$$$%+",
"      .. o..o  X     X o @#$$$%+",
"         o..o  XX o XXXo @#$$$%+",
"      ......o  X     XXo @#$$$%+",
"      ......o  X XXo XXo @#$$$%+",
"      ..o  .o  X     X o @#$$$%+",
"      ..o  .o  X XXo XXo @#$$$%+",
"      ..o  .o  X XXo XXo @#$$$%+",
"      ......o  X XXo XXo @#$$$%+",
"         XX              @#$$$%+",
"        OXXXX            @#$$$%+",
"        OXX..X  oXXXXXXX @#$$$%+",
"        o....X  oX       @#$$$%+",
"        o...X   oX       @#$$$%+",
"        o...X   XXXXXXXo @#$$$%+",
"                         @#$$$%+"
};
