/* XPM */
static char *wall11683119345[] = {
/* columns rows colors chars-per-pixel */
"32 32 9 1 ",
"  c #1C2123",
". c #273034",
"X c #333C40",
"o c #49565C",
"O c #696A6A",
"+ c #8198A3",
"@ c #A1BECC",
"# c #CEE0E9",
"$ c #E3EEF3",
/* pixels */
"                         +@###$O",
"      XXXXo    XXXXXXXXo +@###$O",
"      ....o   oo XXXX  o +@###$O",
"      Xoo   ooXo XXXoooo +@###$O",
"      XXXo    Xo XXo   o +@###$O",
"      XXXo     o Xo XXXo +@###$O",
"       o       o Xo XXXo +@###$O",
"       oo      o Xo XXXo +@###$O",
"       ooXXXo  o Xo XXXo +@###$O",
"        o...o  o Xo XXXo +@###$O",
"               o Xo XXXo +@###$O",
"         XXXo  o Xo XXXo +@###$O",
"         ...o  o Xo XXXo +@###$O",
"           o   o XXXoooo +@###$O",
"           o   o XXo   o +@###$O",
"           o   o Xo XXXo +@###$O",
"        oXXXX  o Xo XXXo +@###$O",
"        o....X o Xo XXXo +@###$O",
"        o....X o Xo XXXo +@###$O",
"        oXX..  o Xo XXXo +@###$O",
"         XX    o Xo XXXo +@###$O",
"        oXXXX  o Xo XXXo +@###$O",
"        oXX..X o Xo XXXo +@###$O",
"        o....X o Xo XXXo +@###$O",
"        oXX..  o XXo   o +@###$O",
"         XX    o XXXoooo +@###$O",
"        oXXXX   XXXXXXXo +@###$O",
"        oXX..X XXXXXXXXo +@###$O",
"        o....X XXXXXXXXo +@###$O",
"        o....  o XXXX  o +@###$O",
"               XXXXXXXXo +@###$O",
"                         +@###$O"
};
