/* XPM */
static char *wall31683119346[] = {
/* columns rows colors chars-per-pixel */
"32 32 10 1 ",
"  c #1C2123",
". c #273034",
"X c #333C40",
"o c #49565C",
"O c #576369",
"+ c #696A6A",
"@ c #8198A3",
"# c #A1BECC",
"$ c #CEE0E9",
"% c #E3EEF3",
/* pixels */
"                         @#$$$%+",
"      ooooooo   XXXXXXXo @#$$$%+",
"      ......o   oXoooooo @#$$$%+",
"      .O OO.o  X XXXXXXo @#$$$%+",
"      .O  O.o  X XXXXXXo @#$$$%+",
"      .O ...o            @#$$$%+",
"      ......o            @#$$$%+",
"      .O ..o   XX oX oXo @#$$$%+",
"      ....o    XX oX oXo @#$$$%+",
"      ...o     XXXXXXXXo @#$$$%+",
"      ..o      XXXXXXXXo @#$$$%+",
"      oo       X ooooooo @#$$$%+",
"               X XXXXXXo @#$$$%+",
"               X Xo XXXo @#$$$%+",
"               X Xo XXXo @#$$$%+",
"               X XXXXXXo @#$$$%+",
"        o...O  X XXXXXXo @#$$$%+",
"      XXOOOOOX X XXXXXXo @#$$$%+",
"      XXOXX..X X   X oXo @#$$$%+",
"        OXXXX  X o X oXo @#$$$%+",
"         XX    X o XXXXo @#$$$%+",
"        oXX.O  X o X oXo @#$$$%+",
"      XXOOOOOX X o X oXo @#$$$%+",
"      XXOXX..X X o XXXXo @#$$$%+",
"        OXXXX  X o X oXo @#$$$%+",
"         XX    X   X oXo @#$$$%+",
"        oXX..  X XXXXXXo @#$$$%+",
"      XXOOOOOX X XXXXXXo @#$$$%+",
"      XXO...OX X XXXXXXo @#$$$%+",
"        OXXXX  X o XX  o @#$$$%+",
"               X XXXXXXo @#$$$%+",
"                         @#$$$%+"
};
