/* XPM */
static char *wall51683119346[] = {
/* columns rows colors chars-per-pixel */
"32 32 10 1 ",
"  c #1C2123",
". c #273034",
"X c #333C40",
"o c #49565C",
"O c #576369",
"+ c #696A6A",
"@ c #8198A3",
"# c #A1BECC",
"$ c #CEE0E9",
"% c #E3EEF3",
/* pixels */
"                         @#$$$%+",
"       .. oo..o XXXXXXXo @#$$$%+",
"          oo..o      XXo @#$$$%+",
"       .......o  XXo XXo @#$$$%+",
"       .......o      XXo @#$$$%+",
"       ..o   .o  XXo XXo @#$$$%+",
"       ..o   .o  XXo XXo @#$$$%+",
"       ..o   .o  XXo XXo @#$$$%+",
"       .......o          @#$$$%+",
"          XXX            @#$$$%+",
"         OXXXXX oXXXXXXX @#$$$%+",
"         OXXX.. oX       @#$$$%+",
"         o..... oX       @#$$$%+",
"         o....X XXXXXXXo @#$$$%+",
"         o....X XXXXXXXo @#$$$%+",
"         o....X XXXXXXXo @#$$$%+",
"         o....X XXXXXXXo @#$$$%+",
"       oooooooo oXoooooo @#$$$%+",
"       .......o  XXXXXXo @#$$$%+",
"       .O OOO.o  XXXXXXo @#$$$%+",
"       .O   O.o          @#$$$%+",
"       .O ....o          @#$$$%+",
"       .......o X oX oXo @#$$$%+",
"       .O ...o  X oX oXo @#$$$%+",
"       .....o   XXXXXXXo @#$$$%+",
"       ...oo    XXXXXXXo @#$$$%+",
"       ..o       ooooooo @#$$$%+",
"       oo        XXXXXXo @#$$$%+",
"                 Xo XXXo @#$$$%+",
"                 Xo XXXo @#$$$%+",
"                 XXXXXXo @#$$$%+",
"                 XXXXXXo @#$$$%+"
};
