/* XPM */
static char *bdanger1683118930[] = {
/* columns rows colors chars-per-pixel */
"32 32 5 1 ",
"  c #1C2123",
". c #696A6A",
"X c #8B9A9B",
"o c #9BADB7",
"O c #D4DEE4",
/* pixels */
"................................",
"..OOOOOOOOOOOOOOOOOOOOOOOOOOO...",
"OOoooooooooooooooooooooooooooXX.",
"OoooooooooooooooooooooooooooooX.",
"OoooooooooooooooooooooooooooooX.",
"OoOOOooOOOoOooOoOOOOoOOOoOOOOoX.",
"Oo   XO   O Xo O    O   O    oX.",
"Oo XX O X O Oo O XXXO XXO XX oX.",
"Oo oo O O O  O O oooO XOO XO oX.",
"Oo oo O   O X  O oOOO   O    oX.",
"Oo oo O X O X  O O  O XXO  XXoX.",
"Oo oo O X O X  O oX O XoO X ooX.",
"Oo OO O X O Xo O OO O XOO X ooX.",
"Oo   XO X O Xo O    O   O XX oX.",
"OoXXXooXoXoXooXoXXXXoXXXoXooXoX.",
"OoooooooooooooooooooooooooooooX.",
"OoooooooooooooooooooooooooooooX.",
"OoooooooooooooooooooooooooooooX.",
"OoooooooooooooooooooooooooooooX.",
"OoooooooooooooooooooooooooooooX.",
"OoooooooooooooooooooooooooooooX.",
"OoooooooooooooooooooooooooooooX.",
"OoooooooooooooooooooooooooooooX.",
"OoooooooooooooooooooooooooooooX.",
"OoooooooooooooooooooooooooooooX.",
"OoooooooooooooooooooooooooooooX.",
"OoooooooooooooooooooooooooooooX.",
"OoooooooooooooooooooooooooooooX.",
"OoooooooooooooooooooooooooooooX.",
"OoooooooooooooooooooooooooooooX.",
"OOoooooooooooooooooooooooooooXX.",
"..XXXXXXXXXXXXXXXXXXXXXXXXXXX..."
};
