/* XPM */
static char *broken_win1683118930[] = {
/* columns rows colors chars-per-pixel */
"32 32 9 1 ",
"  c black",
". c #696A6A",
"X c #606D89",
"o c #8B9A9B",
"O c #9BADB7",
"+ c gray73",
"@ c #D4DEE4",
"# c #CFDCFA",
"$ c white",
/* pixels */
"................................",
"..@@@@@@@@@@@@@@@@@@@@@@@@@@@...",
"@@OOOOOOOOOOOOOOOOOOOOOOOOOOOoo.",
"@OOOOOOOOOOOOOOOOOOOOOOOOOOOOOo.",
"@OO+++++++++++++++++++++++++OOo.",
"@Oo@@@@@@@@@@@@@@@@@@@@@@@@@+Oo.",
"@Oo@#XXXX$$XXXX$$X#XXX##XXX@+Oo.",
"@Oo@X#XX$$XXXX$$XX#XX#XXXXX@+Oo.",
"@Oo@XX#$$XXXX$$XX#X##XXXXXX@+Oo.",
"@Oo@XX#$XXXX$$XXX#XXXXXXXXX@+Oo.",
"@Oo@X$$##XX$$XXX#XXXXXXXXXX@+Oo.",
"@Oo@$$XX#X$$XXX#XXXXXXXX#X#@+Oo.",
"@Oo@$XX# ##XXX# #XXXXXXXX#X@+Oo.",
"@Oo@XXX#   ###   #XXXXXX#XX@+Oo.",
"@Oo@XXX$#        #XXXXX#XXX@+Oo.",
"@Oo@XX$$X#       #XXXX##XXX@+Oo.",
"@Oo@X$$XX#      #XXXX# #XXX@+Oo.",
"@Oo@$$XXX#       #X##  #XXX@+Oo.",
"@Oo@$XXX#         #    #XXX@+Oo.",
"@Oo@XX##              #XXXX@+Oo.",
"@Oo@X#               #XXXXX@+Oo.",
"@Oo@#X##            #XXXXX$@+Oo.",
"@Oo@XXX#         #   #XXX$$@+Oo.",
"@Oo@XXX#        #X#  #XX$$X@+Oo.",
"@Oo@XX#    #####XXX# #X$$XX@+Oo.",
"@Oo@XX# ###XXXXXXXX#  #$XXX@+Oo.",
"@Oo@X#X#XXXXXXXXXXXX####XXX@+Oo.",
"@Oo@#XXXXXXXXXXXXXXX$$X##XX@oOo.",
"@OOo@@@@@@@@@@@@@@@@@@@@@@@ooOo.",
"@OOOooooooooooooooooooooooooOOo.",
"@@OOOOOOOOOOOOOOOOOOOOOOOOOOOoo.",
"..ooooooooooooooooooooooooooo..."
};
