/* XPM */
static char *dna1683118931[] = {
/* columns rows colors chars-per-pixel */
"32 32 13 1 ",
"  c #696A6A",
". c #6D3184",
"X c #5B6EE1",
"o c #8F42AB",
"O c #BA48E5",
"+ c #639BFF",
"@ c #5FCDE4",
"# c #8B9A9B",
"$ c #9BADB7",
"% c gray73",
"& c #BCCDF0",
"* c #D4DEE4",
"= c white",
/* pixels */
"  ***************************   ",
"**$$$$$$$$$$$$$$$$$$$$$$$$$$$## ",
"*$$$$$$$$$$$$$$$$$$$$$$$$$$$$$# ",
"*$$*%%%%%%%%%%%%%%%%%%%%%%%%#$# ",
"*$*%&&&==OO.&&&&&&&&&&&&&&&&%$# ",
"*$*%&&==&&&.&&&&&&&&&&&&&&&&%$# ",
"*$*%&==oOO&.&&&&&&X&+&&X&X+&%$# ",
"*$*%==&o&&.&&&&&&&+X+&XX&++&%$# ",
"*$*%=&&&o.&&@@&&&&&&&&&&&&&=%$# ",
"*$*%&&&&.O&&@@&@&&X++&&+&+==%$# ",
"*$*%&&&.&&o&&&&&&&&&&&&&&==&%$# ",
"*$*%&&.OOOo&&@&&&&+XX&++==X&%$# ",
"*$*%&&.&&&o&&&&&&&&&&&&==&&&%$# ",
"*$*%&&.OOo&&&&&&&&X+&+==+X+=%$# ",
"*$*%&&&.o&&@&&@@&&&&&==&&&==%$# ",
"*$*%&&&.&&&&&&@@&&&&==&&&==&%$# ",
"*$*%&&oO.&&&&&&&&&&==&&&==&&%$# ",
"*$$#%%%%%%%%%%%%%%%%%%%%%%%%#$# ",
"*$$$########################$$# ",
"*$$$$$$$$$$$$$$$$$$$$$$$$$$$$$# ",
"*$$$$$$$$$$$$$$$$$$$$$$$$$$$$$# ",
"*$$$$$$$$$$$$$$$$$$$$$$$$$$$$$# ",
"*$$$$$$$$$$$$$$$$$$$$$$$$$$$$$# ",
"*$$$$$$$$$$$$$$$$$$$$$$$$$$$$$# ",
"*$$$$$$$$$$$$$$$$$$$$$$$$$$$$$# ",
"*$$$$$$$$$$$$$$$$$$$$$$$$$$$$$# ",
"*$$$$$$$$$$$$$$$$$$$$$$$$$$$$$# ",
"*$$$$$$$$$$$$$$$$$$$$$$$$$$$$$# ",
"*$$$$$$$$$$$$$$$$$$$$$$$$$$$$$# ",
"*$$$$$$$$$$$$$$$$$$$$$$$$$$$$$# ",
"**$$$$$$$$$$$$$$$$$$$$$$$$$$$## ",
"  ###########################   "
};
