/* XPM */
static char *down1683118931[] = {
/* columns rows colors chars-per-pixel */
"32 32 5 1 ",
"  c #696A6A",
". c #8B9A9B",
"X c #9BADB7",
"o c #A5BAC4",
"O c #D4DEE4",
/* pixels */
"                                ",
"  OOOOOOOOOOOOOOOOOOOOOOOOOOO   ",
"OOXXXXXXXXXXXXXXXXXXXXXXXXXXX.. ",
"OXXXXXXXXXXXXXXXXXXXXXXXXXXXXX. ",
"OXXXXXXXXXXXOOOOOOOXXXXXXXXXXX. ",
"OXXXXXXXXXXOooooooo.XXXXXXXXXX. ",
"OXXXXXXXXXXOooooooo.XXXXXXXXXX. ",
"OXXXXXXXXXXOooooooo.XXXXXXXXXX. ",
"OXXXXXXXXXXOooooooo.XXXXXXXXXX. ",
"OXXXXXXXXXXOooooooo.XXXXXXXXXX. ",
"OXXXXXXXXXXOooooooo.XXXXXXXXXX. ",
"OXXXXXXXXXXOooooooo.XXXXXXXXXX. ",
"OXXXXXXXXXXOooooooo.XXXXXXXXXX. ",
"OXXXXXXXXXXOooooooo.XXXXXXXXXX. ",
"OXXXXXXXXXXOooooooo.XXXXXXXXXX. ",
"OXXXXXXXOOOOooooooo.OOOXXXXXXX. ",
"OXXXXXXOooooooooooooooo.XXXXXX. ",
"OXXXXXXOooooooooooooooo.XXXXXX. ",
"OXXXXXXXOooooooooooooo.XXXXXXX. ",
"OXXXXXXXXOooooooooooo.XXXXXXXX. ",
"OXXXXXXXXXOooooooooo.XXXXXXXXX. ",
"OXXXXXXXXXXOooooooo.XXXXXXXXXX. ",
"OXXXXXXXXXXXOooooo.XXXXXXXXXXX. ",
"OXXXXXXXXXXXXOooo.XXXXXXXXXXXX. ",
"OXXXXXXXXXXXXXOo.XXXXXXXXXXXXX. ",
"OXXXXXXXXXXXXXXOXXXXXXXXXXXXXX. ",
"OXXXXXXXXXXXXXXXXXXXXXXXXXXXXX. ",
"OXXXXXXXXXXXXXXXXXXXXXXXXXXXXX. ",
"OXXXXXXXXXXXXXXXXXXXXXXXXXXXXX. ",
"OXXXXXXXXXXXXXXXXXXXXXXXXXXXXX. ",
"OOXXXXXXXXXXXXXXXXXXXXXXXXXXX.. ",
"  ...........................   "
};
