/* XPM */
static char *emergency1683118931[] = {
/* columns rows colors chars-per-pixel */
"32 32 15 1 ",
"  c #1B1B1B",
". c gray30",
"X c #696A6A",
"o c #D95763",
"O c #FFD200",
"+ c #92D354",
"@ c #99E550",
"# c #E9E24A",
"$ c #5C6B8E",
"% c #7A89AB",
"& c #8B9A9B",
"* c #9BADB7",
"= c #97A3C1",
"- c #C7D1D6",
"; c #D4DEE4",
/* pixels */
"XXXXXXXXXXXXXXXXXXXXXXXXXXXXXXXX",
"XX;;;;;;;;;;;;;;;;;;;;;;;;;;;XXX",
";;***************************&&X",
";*****************************&X",
";*****************************&X",
";**-------------------------**&X",
";**&....=..................&**&X",
";**&=====.$.$$$$$$$$$$$.$$.&**&X",
";**&.o .=.%.%%%%%%%%%%%.%$.&**&X",
";**&.o .=.%=...........=%$.&**&X",
";**&.o .=.%%===========%%$.&**&X",
";**&.o .=.%%%%%%%%%%%%%%%$.&**&X",
";**&.o .=.%=============%$.&**&X",
";**&.o .=.%$%%%%%%%%%%%$%$.&**&X",
";**&....=.%$%%%%#%%%..%$%$$&**&X",
";**&=====%%$%%%O.O%%==%$%$$&**&X",
";**&%%%%=%%$%%OO.OO%%%%$%$$&**&X",
";**&%+@%=.%$%OOOOOOO%%%$%$$&**&X",
";**&%+@%=.%$%OOO.OOO%%%$%$.&**&X",
";**&%++%=.%$%%%%%%%%%%%$%$.&**&X",
";**&=====.%$$$$$$$$$$$$$%$.&**&X",
";**&=====.%%%%%%$%%$%%$%%$.&**&X",
";**&.......................&**&X",
";**&&&&&&&&&&&&&&&&&&&&&&&&&**&X",
";**&********************&**&**&X",
";**&********************&&&&**&X",
";**&********************&**&**&X",
";**&********************&**&**&X",
";**&********************&**&**&X",
";**&********************&**&**&X",
";;*&********************&**&*&&X",
"XX&&&&&&&&&&&&&&&&&&&&&&&&&&&XXX"
};
