/* XPM */
static char *exit1683118931[] = {
/* columns rows colors chars-per-pixel */
"32 32 7 1 ",
"  c black",
". c #696A6A",
"X c gray50",
"o c #8B9A9B",
"O c #9BADB7",
"+ c #A5BAC4",
"@ c #D4DEE4",
/* pixels */
"................................",
"..@@@@@@@@@@@@@@@@@@@@@@@@@@@...",
"@@OOOOOOOOOOOOOOOOOOOOOOOOOOOoo.",
"@OOOOOOOOOOOOOOOOO.........OOOo.",
"@OOOOOOOOOOOOOOOO.@@@@@@@@@.OOo.",
"@OOOOOOOOOOOOOOOO.@++...+++.OOo.",
"@OOOOOOOOOOOOOOOO.+++ooo+++.OOo.",
"@OOOOOOOOOOOOOOOO.+++++++++.OOo.",
"@OOOOOOOOOOOOOOOO.+++++++++.OOo.",
"@OOOOOOOOOOOOOOOO.+++++++++.OOo.",
"@OOOOOOOOOOOOOOOO.+++++++++.OOo.",
"@OOOOOOOOOOOOOOOO.+++++++++.OOo.",
"@OOOOOOOOOOOOOOOO.+++++++++.OOo.",
"@OOOOOOOOOOOOOOOO.+++++++++.OOo.",
"@OOOOOOOOOOOOOOOO.+++++++++.OOo.",
"@OOOOOOOOOOOOOOOO.+  ++++++.OOo.",
"@OOOOOOOOOOOOOOOO.+ X++++++.OOo.",
"@OOOOOOOOOOOOOOOO.+ X++++++.OOo.",
"@OOOOOOOOOOOOOOOO.+  ++++++.OOo.",
"@OOOOOOOOOOOOOOOO.+++++++++.OOo.",
"@OOOOOOOOOOOOOOOO.+++++++++.OOo.",
"@OOOOOOOOOOOOOOOO.+++++++++.OOo.",
"@OOOOOOOOOOOOOOOO.+++++++++.OOo.",
"@OOOOOOOOOOOOOOOO.+++++++++.OOo.",
"@OOOOOOOOOOOOOOOO.+++++++++.OOo.",
"@OOOOOOOOOOOOOOOO.+++++++++.OOo.",
"@OOOOOOOOOOOOOOOO.+++++++++.OOo.",
"@OOOOOOOOOOOOOOOO.+++++++++.OOo.",
"@OOOOOOOOOOOOOOOOO.........OOOo.",
"@OOOOOOOOOOOOOOOOO@@@@@@@@@OOOo.",
"@@OOOOOOOOOOOOOOOOOOOOOOOOOOOoo.",
"..ooooooooooooooooooooooooooo..."
};
