/* XPM */
static char *extincteur1683118932[] = {
/* columns rows colors chars-per-pixel */
"31 32 17 1 ",
"  c #2F2C2C",
". c #312927",
"X c #302A2E",
"o c gray30",
"O c #5B524D",
"+ c #5D5354",
"@ c #696A6A",
"# c #7D7371",
"$ c #7E7674",
"% c #A93B3A",
"& c #E3472E",
"* c #E4715F",
"= c #8B9A9B",
"- c #9BADB7",
"; c #E2A197",
": c #E9D1CE",
"> c #D4DEE4",
/* pixels */
"@@>>>>>>>>>>>>>>>>>>>>>>>>>>>@@",
">>---------------------------==",
">-----------------------------=",
">-----------------------------=",
">-----------------------------=",
">-----------------------------=",
">-----------------------------=",
">-----------------------------=",
">-----------------------------=",
">---------------OO$X++#-------=",
">----------------XXX+.#XXX----=",
">------------------X###--XX---=",
">-----------------XX *%---XX--=",
">----------------X-- *% ---X--=",
">------------------ ;*%& --X--=",
">------------------&;*%&& -X--=",
">------------------&;*&%& XX--=",
">------------------ ooo o +X--=",
">------------------&;*&%& XX--=",
">------------------&;*&%& X---=",
">------------------:::&%& X---=",
">------------------:::&%& X---=",
">------------------:::&%& XX--=",
">------------------:::&%& +X--=",
">------------------&;*&%& XX--=",
">------------------&;*&%& X---=",
">------------------oooo o ----=",
">-----------------------------=",
">-----------------------------=",
">-----------------------------=",
">>---------------------------==",
"@@===========================@@"
};
