/* XPM */
static char *fire1683118981[] = {
/* columns rows colors chars-per-pixel */
"32 32 13 1 ",
"  c #2F6650",
". c #435152",
"X c #696A6A",
"o c #6ABE30",
"O c #37946E",
"+ c #5B6EE1",
"@ c #639BFF",
"# c #8B9A9B",
"$ c #9BADB7",
"% c gray73",
"& c #BCCDF0",
"* c #D4DEE4",
"= c white",
/* pixels */
"XXXXXXXXXXXXXXXXXXXXXXXXXXXXXXXX",
"XX***************************XXX",
"**$$$$$$$$$$$$$$$$$$$$$$$$$$$##X",
"*$$*%%%%%%%%%%%%%%%%%%%%%%%%#$#X",
"*$*%&&&==&&&&&&&&&&&&&&&&&&&%$#X",
"*$*%&&==&&&&&&&&&&&&&&&&&&&&%$#X",
"*$*%&==&&&&&&&O&&&+&@&@+&+&&%$#X",
"*$*%==&&&&&&&&&O&&@&@&+&&@@&%$#X",
"*$*%=&& &&&& &OO&&&&&&&&&&&=%$#X",
"*$*%&& &&O  && O&&+@&+@@+&==%$#X",
"*$*%&& &O oO& o &&&&&&&&&==&%$#X",
"*$*%&&O  oO&  o &&@@@+&+==+&%$#X",
"*$*%&OOO oOO o O&&&&&&&==&&&%$#X",
"*$*%& o  oOOoo OO&@+&@==+++=%$#X",
"*$*%& o O o o oo &&&&==&&&==%$#X",
"*$*%&& ooO oooo &&&&==&&&==&%$#X",
"*$*%&&&  oooo  &&&&==&&&==&&%$#X",
"*$$#%%%%%%%%%%%%%%%%%%%%%%%%#$#X",
"*$$$###############.#.#.####$$#X",
"*$$$$$$$$$$$$$$$$$$$$$$$$$$$$$#X",
"*$$$$$$$$$$$$$$$$$$$$$$$$$$$$$#X",
"*$$$$$$$$$$$$$$$$$$$$$$$$$$$$$#X",
"*$$$$$$$$$$$$$$$$$$$$$$$$$$$$$#X",
"*$$$$$$$$$$$$$$$$$$$$$$$$$$$$$#X",
"*$$$$$$$$$$$$$$$$$$$$$$$$$$$$$#X",
"*$$$$$$$$$$$$$$$$$$$$$$$$$$$$$#X",
"*$$$$$$$$$$$$$$$$$$$$$$$$$$$$$#X",
"*$$$$$$$$$$$$$$$$$$$$$$$$$$$$$#X",
"*$$$$$$$$$$$$$$$$$$$$$$$$$$$$$#X",
"*$$$$$$$$$$$$$$$$$$$$$$$$$$$$$#X",
"**$$$$$$$$$$$$$$$$$$$$$$$$$$$##X",
"XX###########################XXX"
};
