/* XPM */
static char *huge_blood1683118981[] = {
/* columns rows colors chars-per-pixel */
"32 32 5 1 ",
"  c #696A6A",
". c #AC3232",
"X c #8B9A9B",
"o c #9BADB7",
"O c #D4DEE4",
/* pixels */
"                                ",
"  OOOOOOOOOOOOOOOOOOOOOOOOOOO   ",
"OOoooooooooooooooooooooooooooXX ",
"OoooooooooooooooooooooooooooooX ",
"OoooooooooooooooooooooooooooooX ",
"OoooooooooooooooooooooooooooooX ",
"Ooo.ooooooooooooooooooooooooooX ",
"Ooooooooooo.ooooooooooooooooooX ",
"Ooooooo.o.o.ooooooooooooooooooX ",
"Ooooooo.ooo..oooooooooooooooooX ",
"Ooooooo.oooo.oooo.ooooooooooooX ",
"Ooooo.o..ooo..oooo.oooooooooooX ",
"Oooo.oo.oooo...oo..o.oooooooooX ",
"Oooo.oo.oooo....o..o.oooooooooX ",
"Ooo..oo.ooooo...o....oooooooooX ",
"Oooo..o.oooo.oo.....ooooooooooX ",
"Ooooo..o.oo...o...o.o.ooooooooX ",
"Oo.ooo.oo.oo......oo..ooooooooX ",
"Oooooo.oo.oo.oo......oooooooooX ",
"Oooooooooo..ooo......oooooooooX ",
"Oo.o.oooooo..ooo......ooo.ooooX ",
"Oo..ooooooo...........oo...oooX ",
"Ooo..ooooooo..........oo..ooooX ",
"Ooo...oooooo.........oooo.o.ooX ",
"Ooo....oooo..o........oo..ooooX ",
"Ooo.o......o.oo.......oo.oo.ooX ",
"Ooo.ooo..o.o..o.......oo.oo.ooX ",
"Ooo.oo..oo....o......oo..oo.ooX ",
"Ooooooo.ooo..........o...oo.ooX ",
"Ooooooo.oooo.............oooooX ",
"OOooooo.ooooooo..........ooooXX ",
"  XXXXXXXXXXXXXXX........XXXX   "
};
