/* XPM */
static char *keyboard1683118981[] = {
/* columns rows colors chars-per-pixel */
"32 32 8 1 ",
"  c #696A6A",
". c #CC8E63",
"X c #6A9EBB",
"o c #818E8F",
"O c #8B9A9B",
"+ c #9BADB7",
"@ c #C7D1D6",
"# c #D4DEE4",
/* pixels */
"                                ",
"  ###########################   ",
"##+++++++++++++++++++++++++++OO ",
"#+++++++++++++++++++++++++++++O ",
"#+++++++++++++++++++++++++++++O ",
"#+++++++++++++++++++++++++++++O ",
"#+++++++++++++++++++++++++++++O ",
"#+++++++++++++++++++++++++++++O ",
"#+++++++++++++++++++++++++++++O ",
"#+++++++++++++++++++++++++++++O ",
"#+++++++++++++++++++++++++++++O ",
"#+++++++++++++++++++++++++++++O ",
"#+++++++++++++++++++++++++++++O ",
"#+++++++++++++++++++++++++++++O ",
"#+++++++++++++++++++++++++++++O ",
"#+++++++++++++++++++++++++++++O ",
"#+++++++++++++++++++++++++++++O ",
"#+++++++++++++++++++++++++++++O ",
"#+++++++++++++++++++++++++++++O ",
"#++++++++oooooooooooooo@++++++O ",
"#++++++++o+++++++++++++@++++++O ",
"#++++++++o+......+...++@++++++O ",
"#++++++++o+++++++++++++@++++++O ",
"#++++++++o+XXXXX+X+XXX+@++++++O ",
"#++++++++o+++++++++++++@++++++O ",
"#++++++++o+XX+XXXXXXXX+@++++++O ",
"#++++++++o+++++++++++++@++++++O ",
"#++++++++@@@@@@@@@@@@@@@++++++O ",
"#+++++++++++++++++++++++++++++O ",
"#+++++++++++++++++++++++++++++O ",
"##+++++++++++++++++++++++++++OO ",
"  OOOOOOOOOOOOOOOOOOOOOOOOOOO   "
};
