/* XPM */
static char *keycode1683118982[] = {
/* columns rows colors chars-per-pixel */
"32 32 9 1 ",
"  c #696A6A",
". c #5C6B8E",
"X c #7A89AB",
"o c #8B9A9B",
"O c #9BADB7",
"+ c #97A3C1",
"@ c #C7D1D6",
"# c #D4DEE4",
"$ c #EBF0F3",
/* pixels */
"                                ",
"  ###########################   ",
"##OOOOOOOOOOOOOOOOOOOOOOOOOOOoo ",
"#OOOOOOOOOOOOOOOOOOOOOOOOOOOOOo ",
"#OOOOOOOOOOOOOOOOOOOOOOOOOOOOOo ",
"#OOOOOOOOOOOOOOOOOOOOOOOOOOOOOo ",
"#OOOOOOOOOOOOOOOOOOOOOOOOOOOOOo ",
"#OOOOOOOOOOOOOOOOOOOOOOOOOOOOOo ",
"#OOOOOOOOOOOOOOOOOOOOOOOOOOOOOo ",
"#OOOOOOOOOOO@@@@@@@@@OOOOOOOOOo ",
"#OOOOOOOOOO@+++++++++oOOOOOOOOo ",
"#OOOOOOOOO@+XXXXXXXXX.oOOOOOOOo ",
"#OOOOOOOOO@+XX+++++XX.oOOOOOOOo ",
"#OOOOOOOOO@+X+$$$$$.X.oOOOOOOOo ",
"#OOOOOOOOO@+X+$$$$$.X.oOOOOOOOo ",
"#OOOOOOOOO@+XX.....XX.oOOOOOOOo ",
"#OOOOOOOOO@+XXXXXXXXX.oOOOOOOOo ",
"#OOOOOOOOO@+X+.+.+.+X.oOOOOOOOo ",
"#OOOOOOOOO@+X.......X.oOOOOOOOo ",
"#OOOOOOOOO@+X+.+.+.+X.oOOOOOOOo ",
"#OOOOOOOOO@+X.......X.oOOOOOOOo ",
"#OOOOOOOOO@+XXXXXXXXX.oOOOOOOOo ",
"#OOOOOOOOOOo.........oOOOOOOOOo ",
"#OOOOOOOOOOOoooooooooOOOOOOOOOo ",
"#OOOOOOOOOOOOOOOOOOOOOOOOOOOOOo ",
"#OOOOOOOOOOOOOOOOOOOOOOOOOOOOOo ",
"#OOOOOOOOOOOOOOOOOOOOOOOOOOOOOo ",
"#OOOOOOOOOOOOOOOOOOOOOOOOOOOOOo ",
"#OOOOOOOOOOOOOOOOOOOOOOOOOOOOOo ",
"#OOOOOOOOOOOOOOOOOOOOOOOOOOOOOo ",
"##OOOOOOOOOOOOOOOOOOOOOOOOOOOoo ",
"  ooooooooooooooooooooooooooo   "
};
