/* XPM */
static char *left1683118982[] = {
/* columns rows colors chars-per-pixel */
"32 32 5 1 ",
"  c #696A6A",
". c #8B9A9B",
"X c #9BADB7",
"o c #A5BAC4",
"O c #D4DEE4",
/* pixels */
"                                ",
"  OOOOOOOOOOOOOOOOOOOOOOOOOOO   ",
"OOXXXXXXXXXXXXXXXXXXXXXXXXXXX.. ",
"OXXXXXXXXXXXXXXXXXXXXXXXXXXXXX. ",
"OXXXXXXXXXXXXXXXXXXXXXXXXXXXXX. ",
"OXXXXXXXXXXXXXXXXXXXXXXXXXXXXX. ",
"OXXXXXXXXXXXXXXXXXXXXXXXXXXXXX. ",
"OXXXXXXXXXXXXXXXXXXXXXXXXXXXXX. ",
"OXXXXXXXXXXXOOXXXXXXXXXXXXXXXX. ",
"OXXXXXXXXXXOooOXXXXXXXXXXXXXXX. ",
"OXXXXXXXXXOooo.XXXXXXXXXXXXXXX. ",
"OXXXXXXXXOoooo.XXXXXXXXXXXXXXX. ",
"OXXXXXXXOooooo.OOOOOOOOOOXXXXX. ",
"OXXXXXXOooooooooooooooooo.XXXX. ",
"OXXXXXOoooooooooooooooooo.XXXX. ",
"OXXXXOooooooooooooooooooo.XXXX. ",
"OXXXOoooooooooooooooooooo.XXXX. ",
"OXXXX.ooooooooooooooooooo.XXXX. ",
"OXXXXX.oooooooooooooooooo.XXXX. ",
"OXXXXXX.ooooooooooooooooo.XXXX. ",
"OXXXXXXX.ooooo...........XXXXX. ",
"OXXXXXXXX.oooo.XXXXXXXXXXXXXXX. ",
"OXXXXXXXXX.ooo.XXXXXXXXXXXXXXX. ",
"OXXXXXXXXXX.oo.XXXXXXXXXXXXXXX. ",
"OXXXXXXXXXXX..XXXXXXXXXXXXXXXX. ",
"OXXXXXXXXXXXXXXXXXXXXXXXXXXXXX. ",
"OXXXXXXXXXXXXXXXXXXXXXXXXXXXXX. ",
"OXXXXXXXXXXXXXXXXXXXXXXXXXXXXX. ",
"OXXXXXXXXXXXXXXXXXXXXXXXXXXXXX. ",
"OXXXXXXXXXXXXXXXXXXXXXXXXXXXXX. ",
"OOXXXXXXXXXXXXXXXXXXXXXXXXXXX.. ",
"  ...........................   "
};
