/* XPM */
static char *mossy1683118982[] = {
/* columns rows colors chars-per-pixel */
"32 32 6 1 ",
"  c #696A6A",
". c #6ABE30",
"X c #37946E",
"o c #8B9A9B",
"O c #9BADB7",
"+ c #D4DEE4",
/* pixels */
"                                ",
"  +++++++++  ++++++  X..+++++   ",
"++OOOOOOOOO+ OO+   XX.O.OOOOOoo ",
"+OOOOOOOOOO+ ++ XXX...O.OOOOOOo ",
"+OOOOOOOOOO+   OO.....O.OOOOOOo ",
"+OOOOOOOOOO+ OOOOO...OO.OOOOOOo ",
"+OOOOOOOOO+ OOOOOO...OOOOOOOOOo ",
"+OOOOOOOOO+XOOOOOO...OOOOOOOOOo ",
"+OOOOOOOO+X.OOOOOO.O.OOOOOOOOOo ",
"+OOOOOOO+X.OOOOOOO.O.OOOOOOOOOo ",
"+OOOOOO+ X.OOOOOOO.O.OOOOOOOOOo ",
"+OOOOO+ O...OOOOOOOO.OOOOOOOOOo ",
"+OOO++ OOO..OOOOOOOO.OOOOOOOOOo ",
"+O++X OOOO..OOOOOOOO.OOOOOOOOOo ",
"++  ..OOOO..OOOOOOOO.OOOOOOOOOo ",
"+ OO.OOOOO.OOOOOOOOO.OOOOOOOOOo ",
" OOO.OOOOO.OOOOOOOOO.OOOOOOOOOo ",
"+OOOOOOOOO.OOOOOOOOO.OOOOOOOOOo ",
"+OOOOOOOOO.OOOOOOOOOOOOOOOOOOOo ",
"+OOOOOOOOO.OOOOOOOOOOOOOOOOOOOo ",
"+OOOOOOOOO.OOOOOOOOOOOOOOOOOOOo ",
"+OOOOOOOOOOOOOOOOOOOOOOOOOOOOOo ",
"+OOOOOOOOOOOOOOOOOOOOOOOOOOOOOo ",
"+OOOOOOOOOOOOOOOOOOOOOOOOOOOOOo ",
"+OOOOOOOOOOOOOOOOOOOOOOOOOOOOOo ",
"+OOOOOOOOOOOOOOOOOOOOOOOOOOOOOo ",
"+OOOOOOOOOOOOOOOOOOOOOOOOOOOOOo ",
"+OOOOOOOOOOOOOOOOOOOOOOOOOOOOOo ",
"+OOOOOOOOOOOOOOOOOOOOOOOOOOOOOo ",
"+OOOOOOOOOOOOOOOOOOOOOOOOOOOOOo ",
"++OOOOOOOOOOOOOOOOOOOOOOOOOOOoo ",
"  ooooooooooooooooooooooooooo   "
};
