/* XPM */
static char *radioactive1683118983[] = {
/* columns rows colors chars-per-pixel */
"32 32 6 1 ",
"  c black",
". c #696A6A",
"X c #FFD200",
"o c #8B9A9B",
"O c #9BADB7",
"+ c #D4DEE4",
/* pixels */
"................................",
"..+++++++++++++++++++++++++++...",
"++OOOOOOOOOOOOOOOOOOOOOOOOOOOoo.",
"+OOOOOOOOOOOXXXXXXXXOOOOOOOOOOo.",
"+OOOOOOOOOXXXXXXXXXXXXOOOOOOOOo.",
"+OOOOOOOXXXXXXXXXXXXXXXXOOOOOOo.",
"+OOOOOOXXXXXXXXXXXXXXXXXXOOOOOo.",
"+OOOOOXXXXXXXXXXXXXXXXXXXXOOOOo.",
"+OOOOXXXX  XXXXXXXXXX  XXXXOOOo.",
"+OOOXXXX   XXXXXXXXXX   XXXXOOo.",
"+OOOXXX     XXXXXXXX     XXXOOo.",
"+OOXXX       XXXXXX       XXXOo.",
"+OOXXX       XXXXXX       XXXOo.",
"+OXXX         XXXX         XXXo.",
"+OXXX         XXXX         XXXo.",
"+OXXX        XX  XX        XXXo.",
"+OXXX        X    X        XXXo.",
"+OXXXXXXXXXXXX    XXXXXXXXXXXXo.",
"+OXXXXXXXXXXXXX  XXXXXXXXXXXXXo.",
"+OXXXXXXXXXXXXXXXXXXXXXXXXXXXXo.",
"+OXXXXXXXXXXXX    XXXXXXXXXXXXo.",
"+OOXXXXXXXXXXX    XXXXXXXXXXXOo.",
"+OOXXXXXXXXXXX    XXXXXXXXXXXOo.",
"+OOOXXXXXXXXX      XXXXXXXXXOOo.",
"+OOOXXXXXXXXX      XXXXXXXXXOOo.",
"+OOOOXXXXXXX        XXXXXXXOOOo.",
"+OOOOOXXXXXX        XXXXXXOOOOo.",
"+OOOOOOXXXX          XXXXOOOOOo.",
"+OOOOOOOXXXXX      XXXXXOOOOOOo.",
"+OOOOOOOOOXXXXXXXXXXXXOOOOOOOOo.",
"++OOOOOOOOOOXXXXXXXXOOOOOOOOOoo.",
"..ooooooooooooooooooooooooooo..."
};
