/* XPM */
static char *rdanger1683118983[] = {
/* columns rows colors chars-per-pixel */
"32 32 5 1 ",
"  c #696A6A",
". c #ED1C24",
"X c #8B9A9B",
"o c #9BADB7",
"O c #D4DEE4",
/* pixels */
"                                ",
"  OOOOOOOOOOOOOOOOOOOOOOOOOOO   ",
"OOoooooooooooooooooooooooooooXX ",
"OoooooooooooooooooooooooooooooX ",
"OoooooooooooooooooooooooooooooX ",
"OoooooooooooooooooooooooooooooX ",
"Oo...oo...o.oo.o....o...o....oX ",
"Oo.oo.o.o.o.oo.o.oooo.ooo.oo.oX ",
"Oo.oo.o.o.o..o.o.oooo.ooo.oo.oX ",
"Oo.oo.o...o.o..o.oooo...o....oX ",
"Oo.oo.o.o.o.o..o.o..o.ooo..oooX ",
"Oo.oo.o.o.o.o..o.oo.o.ooo.o.ooX ",
"Oo.oo.o.o.o.oo.o.oo.o.ooo.o.ooX ",
"Oo...oo.o.o.oo.o....o...o.oo.oX ",
"OoooooooooooooooooooooooooooooX ",
"OoooooooooooooooooooooooooooooX ",
"OoooooooooooooooooooooooooooooX ",
"OoooooooooooooooooooooooooooooX ",
"OoooooooooooooooooooooooooooooX ",
"OoooooooooooooooooooooooooooooX ",
"OoooooooooooooooooooooooooooooX ",
"OoooooooooooooooooooooooooooooX ",
"OoooooooooooooooooooooooooooooX ",
"OoooooooooooooooooooooooooooooX ",
"OoooooooooooooooooooooooooooooX ",
"OoooooooooooooooooooooooooooooX ",
"OoooooooooooooooooooooooooooooX ",
"OoooooooooooooooooooooooooooooX ",
"OoooooooooooooooooooooooooooooX ",
"OoooooooooooooooooooooooooooooX ",
"OOoooooooooooooooooooooooooooXX ",
"  XXXXXXXXXXXXXXXXXXXXXXXXXXX   "
};
