/* XPM */
static char *right1683118983[] = {
/* columns rows colors chars-per-pixel */
"32 32 5 1 ",
"  c #696A6A",
". c #8B9A9B",
"X c #9BADB7",
"o c #A5BAC4",
"O c #D4DEE4",
/* pixels */
"  OOOOOOOOOOOOOOOOOOOOOOOOOOO   ",
"OOXXXXXXXXXXXXXXXXXXXXXXXXXXX.. ",
"OXXXXXXXXXXXXXXXXXXXXXXXXXXXXX. ",
"OXXXXXXXXXXXXXXXXXXXXXXXXXXXXX. ",
"OXXXXXXXXXXXXXXXXXXXXXXXXXXXXX. ",
"OXXXXXXXXXXXXXXXXOOXXXXXXXXXXX. ",
"OXXXXXXXXXXXXXXXOoo.XXXXXXXXXX. ",
"OXXXXXXXXXXXXXXXOooo.XXXXXXXXX. ",
"OXXXXXXXXXXXXXXXOoooo.XXXXXXXX. ",
"OXXXXXOOOOOOOOOOOooooo.XXXXXXX. ",
"OXXXXOooooooooooooooooo.XXXXXX. ",
"OXXXXOoooooooooooooooooo.XXXXX. ",
"OXXXXOooooooooooooooooooo.XXXX. ",
"OXXXXOoooooooooooooooooooo.XXX. ",
"OXXXXOooooooooooooooooooo.XXXX. ",
"OXXXXOoooooooooooooooooo.XXXXX. ",
"OXXXXOooooooooooooooooo.XXXXXX. ",
"OXXXXX...........ooooo.XXXXXXX. ",
"OXXXXXXXXXXXXXXXOoooo.XXXXXXXX. ",
"OXXXXXXXXXXXXXXXOooo.XXXXXXXXX. ",
"OXXXXXXXXXXXXXXXOoo.XXXXXXXXXX. ",
"OXXXXXXXXXXXXXXXX..XXXXXXXXXXX. ",
"OXXXXXXXXXXXXXXXXXXXXXXXXXXXXX. ",
"OXXXXXXXXXXXXXXXXXXXXXXXXXXXXX. ",
"OXXXXXXXXXXXXXXXXXXXXXXXXXXXXX. ",
"OXXXXXXXXXXXXXXXXXXXXXXXXXXXXX. ",
"OXXXXXXXXXXXXXXXXXXXXXXXXXXXXX. ",
"OXXXXXXXXXXXXXXXXXXXXXXXXXXXXX. ",
"OXXXXXXXXXXXXXXXXXXXXXXXXXXXXX. ",
"OXXXXXXXXXXXXXXXXXXXXXXXXXXXXX. ",
"OOXXXXXXXXXXXXXXXXXXXXXXXXXXX.. ",
"  ...........................   "
};
