/* XPM */
static char *small_blood1683118983[] = {
/* columns rows colors chars-per-pixel */
"32 32 5 1 ",
"  c #696A6A",
". c #AC3232",
"X c #8B9A9B",
"o c #9BADB7",
"O c #D4DEE4",
/* pixels */
"  OOOOOOOOOOOOOOOOOOOOOOOOOOO   ",
"OOoooooooooooooooooooooooooooXX ",
"OoooooooooooooooooooooooooooooX ",
"OoooooooooooooooooooooooooooooX ",
"OoooooooooooooooooooooooooooooX ",
"OoooooooooooooooooooooooooooooX ",
"OoooooooooooooooooooooooooooooX ",
"OoooooooooooooooooooooooooooooX ",
"OoooooooooooooooooooooooooooooX ",
"OoooooooooooooooooooooooooooooX ",
"OoooooooooooooooooooooooooooooX ",
"OoooooooooooooooooooooooooooooX ",
"OoooooooooooooooooooooooooooooX ",
"OoooooooooooooooooooooooooooooX ",
"Oooooooooooooooooooooo.oooooooX ",
"Ooooooooooooooooooooo..o.oooooX ",
"Ooooooooooooooooooo.o..o.oooooX ",
"Ooooooooooooooooooo.o....oooooX ",
"Oooooooooooooooooooo....ooooooX ",
"Oooooooooooooooooooo..o.o.ooooX ",
"Oooooooooooooooooooo..oo..ooooX ",
"Ooooooooooooooooooooo....oooooX ",
"Ooooooooooooooooooooo....oooooX ",
"Oooooooooooooooooooooooo.oooooX ",
"Oooooooooooooooooooo.o.oooooooX ",
"Oooooooooooooooooooo.o.oooooooX ",
"Oooooooooooooooooooooo.o.oooooX ",
"Oooooooooooooooooooo.o.oo.ooooX ",
"Ooooooooooooooooooooooooo.ooooX ",
"Ooooooooooooooooooooooooo.ooooX ",
"OOoooooooooooooooooooooooooooXX ",
"  XXXXXXXXXXXXXXXXXXXXXXXXXXX   "
};
