/* XPM */
static char *stats1683118984[] = {
/* columns rows colors chars-per-pixel */
"32 32 10 1 ",
"  c #606869",
". c #696A6A",
"X c #306082",
"o c #42D3F2",
"O c #858787",
"+ c #8B9A9B",
"@ c #9BADB7",
"# c #D4DEE4",
"$ c #D6E0E6",
"% c #E9EEF1",
/* pixels */
"................................",
"..###########################...",
"##@@@@@@@@@@@@@@@@@@@@@@@@@@@++.",
"#@@@@@@@@@@@@@@@@@@@@@@@@@@@@@+.",
"#@@@@@@@@@@@@@@@@@@@@@@@@@@@@@+.",
"#@@@@@@@@@%%%%%%%%%%%%%%%%%+@@+.",
"#@@@@@@@@@%$$$$$$$$$$$$$$$$+@@+.",
"#@@@@@@@@@%$++++++++++++++$+@@+.",
"#@@@@@@@@@%$+XXXXXXXXXXXX%$+@@+.",
"#@@@@@@@@@%$+XXXXXoXXoXoX%$+@@+.",
"#@@@@@@@@@%$+XoXXXoXXXoXX%$+@@+.",
"#@@@@@@@@@%$+XoXXXoXXoXoX%$+@@+.",
"#@@@@@@@@@%$+XoXoXoXXXXXX%$+@@+.",
"#@@@@@@@@@%$+%%%%%%%%%%%%%$+@@+.",
"#@@@@@@@@@%$$$$$$$$$$$$$$$$+@@+.",
"#@@@@@@@@@++++++++++++++++++@@+.",
"#@@@@@@@@@@@@@@@@@@@@@@@@@@@@@+.",
"#@@@@@@@@@@@@@@@@@@@@######+@@+.",
"#@@@@@@@@@@@@@@@@@@@@#OOOOO+@@+.",
"#@@@@@@@@@@@@@@@@@@@@#O O O+@@+.",
"#@@@@@@@@@@@@@@@@@@@@#O   O+@@+.",
"#@@@@@@@@@@@@@@@@@@@@#OOOOO+@@+.",
"#@@@@@@@@@@@@@@@@@@@@+++++++@@+.",
"#@@@@@@@@@@@@@@@@@@@@@@@@@@@@@+.",
"#@@@@@@@@@@@@@@@@@@@@@@@@@@@@@+.",
"#@@@@@@@@@@@@@@@@@@@@@@@@@@@@@+.",
"#@@@@@@@@@@@@@@@@@@@@@@@@@@@@@+.",
"#@@@@@@@@@@@@@@@@@@@@@@@@@@@@@+.",
"#@@@@@@@@@@@@@@@@@@@@@@@@@@@@@+.",
"#@@@@@@@@@@@@@@@@@@@@@@@@@@@@@+.",
"##@@@@@@@@@@@@@@@@@@@@@@@@@@@++.",
"..+++++++++++++++++++++++++++..."
};
