/* XPM */
static char *television1683118984[] = {
/* columns rows colors chars-per-pixel */
"32 32 16 1 ",
"  c #23231B",
". c #435152",
"X c #696A6A",
"o c #9E8511",
"O c #D7B40F",
"+ c #FFD200",
"@ c #5B6EE1",
"# c #639BFF",
"$ c #5FCDE4",
"% c #8B9A9B",
"& c #9BADB7",
"* c gray73",
"= c #BCCDF0",
"- c #80E3F8",
"; c #D4DEE4",
": c white",
/* pixels */
"XX;;;;;;;;;;;;;;;;;;;;;;;;;;;XXX",
";;&&&&&&&&&&&&&&&&&&&&&&&&&&&%%X",
";&&;************************%&%X",
";&;*===::===================*&%X",
";&;*==::====================*&%X",
";&;*=::==oooo====#==#=@@=@==*&%X",
";&;*::==o++++o===#@=#=@#=@@=*&%X",
";&;*:===O    O=============:*&%X",
";&;*==== --$$ ===@=#=#@==@::*&%X",
";&;*==== -$$$ ===========::=*&%X",
";&;*=====    ====##==@#=::==*&%X",
";&;*==== o  o =========::===*&%X",
";&;*===o oooo o==###==::=@=:*&%X",
";&;*===oO OO Oo======::===::*&%X",
";&;*===oO ++ Oo==@##::@@=::=*&%X",
";&;*===oO ++ Oo====::===::==*&%X",
";&&%************************%&%X",
";&&&%%%%%%%%%%%%%%%.%.%.%%%%&&%X",
";&&&&&&&&&&&&&&&&&&&&&&&&&&&&&%X",
";&&&&&&&&&&&&&&&&&&&&&&&&&&&&&%X",
";&&&&&&&&&&&&&&&&&&&&&&&&&&&&&%X",
";&&&&&&&&&&&&&&&&&&&&&&&&&&&&&%X",
";&&&&&&&&&&&&&&&&&&&&&&&&&&&&&%X",
";&&&&&&&&&&&&&&&&&&&&&&&&&&&&&%X",
";&&&&&&&&&&&&&&&&&&&&&&&&&&&&&%X",
";&&&&&&&&&&&&&&&&&&&&&&&&&&&&&%X",
";&&&&&&&&&&&&&&&&&&&&&&&&&&&&&%X",
";&&&&&&&&&&&&&&&&&&&&&&&&&&&&&%X",
";&&&&&&&&&&&&&&&&&&&&&&&&&&&&&%X",
";&&&&&&&&&&&&&&&&&&&&&&&&&&&&&%X",
";;&&&&&&&&&&&&&&&&&&&&&&&&&&&%%X",
"XX%%%%%%%%%%%%%%%%%%%%%%%%%%%XXX"
};
