/* XPM */
static char *temp_controler1683118984[] = {
/* columns rows colors chars-per-pixel */
"32 32 19 1 ",
"  c #524B24",
". c #435152",
"X c #696A6A",
"o c #DF7126",
"O c #6ABE30",
"+ c #306082",
"@ c #517893",
"# c #5B6EE1",
"$ c #B974D3",
"% c #639BFF",
"& c #8B9A9B",
"* c #9BADB7",
"= c gray73",
"- c #D089EB",
"; c #BCCDF0",
": c #D4DEE4",
"> c #D6E0E6",
", c #E9EEF1",
"< c white",
/* pixels */
"XX:::::::::::::::::::::::::::XXX",
"::***************************&&X",
":**:========================&*&X",
":*:=;;;<<;;;;;;;;;;;;;;;;;;;=*&X",
":*:=;;<<;;;;;;;;;;;;;;;;;;;;=*&X",
":*:=;<<;;OOOO;;;;#%#;%%#;#%;=*&X",
":*:=<<;;OOOOOO;;;%##%%#%;%#;=*&X",
":*:=<;;OOOOOOOO;;;;;;;;;;;;<=*&X",
":*:=;;ooOOOOOOOO;##%;%#;;#<<=*&X",
":*:=;;oooooOOOOO;;;;;;;;;<<;=*&X",
":*:=;;oooo# OOOO;#####%;<<;;=*&X",
":*:=;;oo###   OO;;;;;;;<<;;;=*&X",
":*:=;;;####    ;;##%;;<<;#;<=*&X",
":*:=;;;;###   ;;;;;;;<<;;;<<=*&X",
":*:=;;;;;##  ;;;;##%<<##;<<;=*&X",
":*:=;;;;;;;;;;;;;;;<<;;;<<;;=*&X",
":**&========================&*&X",
":***&&&&&&&&&&&&&&&.&.&.&&&&**&X",
":*****************************&X",
":*,,,,,,,,,,,,,,,,,&**********&X",
":*,>>>>>>>>>>>>>>>>&**********&X",
":*,>@+@+@+@+@+@+@+>&**********&X",
":*,>+-$@-$+-$@+$-@>&**********&X",
":*,>@-$+-+@+@+@$-+>&**********&X",
":*,>+$-@+@+-$@---@>&**********&X",
":*,>@+@+@+@+@+@+@+>&**********&X",
":*,>>>>>>>>>>>>>>>>&**********&X",
":*&&&&&&&&&&&&&&&&&&**********&X",
":*****************************&X",
":*****************************&X",
"::***************************&&X",
"XX&&&&&&&&&&&&&&&&&&&&&&&&&&&XXX"
};
