/* XPM */
static char *up1683118984[] = {
/* columns rows colors chars-per-pixel */
"32 32 5 1 ",
"  c #696A6A",
". c #8B9A9B",
"X c #9BADB7",
"o c #A5BAC4",
"O c #D4DEE4",
/* pixels */
"  OOOOOOOOOOOOOOOOOOOOOOOOOOO   ",
"OOXXXXXXXXXXXXXXXXXXXXXXXXXXX.. ",
"OXXXXXXXXXXXXXXXXXXXXXXXXXXXXX. ",
"OXXXXXXXXXXXXXXXXXXXXXXXXXXXXX. ",
"OXXXXXXXXXXXXXXXOXXXXXXXXXXXXX. ",
"OXXXXXXXXXXXXXXOo.XXXXXXXXXXXX. ",
"OXXXXXXXXXXXXXOooo.XXXXXXXXXXX. ",
"OXXXXXXXXXXXXOooooo.XXXXXXXXXX. ",
"OXXXXXXXXXXXOooooooo.XXXXXXXXX. ",
"OXXXXXXXXXXOooooooooo.XXXXXXXX. ",
"OXXXXXXXXXOooooooooooo.XXXXXXX. ",
"OXXXXXXXXOooooooooooooo.XXXXXX. ",
"OXXXXXXXOooooooooooooooo.XXXXX. ",
"OXXXXXXXOooooooooooooooo.XXXXX. ",
"OXXXXXXXXOOOOooooooo....XXXXXX. ",
"OXXXXXXXXXXXOooooooo.XXXXXXXXX. ",
"OXXXXXXXXXXXOooooooo.XXXXXXXXX. ",
"OXXXXXXXXXXXOooooooo.XXXXXXXXX. ",
"OXXXXXXXXXXXOooooooo.XXXXXXXXX. ",
"OXXXXXXXXXXXOooooooo.XXXXXXXXX. ",
"OXXXXXXXXXXXOooooooo.XXXXXXXXX. ",
"OXXXXXXXXXXXOooooooo.XXXXXXXXX. ",
"OXXXXXXXXXXXOooooooo.XXXXXXXXX. ",
"OXXXXXXXXXXXOooooooo.XXXXXXXXX. ",
"OXXXXXXXXXXXOooooooo.XXXXXXXXX. ",
"OXXXXXXXXXXXX.......XXXXXXXXXX. ",
"OXXXXXXXXXXXXXXXXXXXXXXXXXXXXX. ",
"OXXXXXXXXXXXXXXXXXXXXXXXXXXXXX. ",
"OXXXXXXXXXXXXXXXXXXXXXXXXXXXXX. ",
"OXXXXXXXXXXXXXXXXXXXXXXXXXXXXX. ",
"OOXXXXXXXXXXXXXXXXXXXXXXXXXXX.. ",
"  ...........................   "
};
