/* XPM */
static char *vent1683118985[] = {
/* columns rows colors chars-per-pixel */
"32 32 5 1 ",
"  c #696A6A",
". c #8B9A9B",
"X c #9BADB7",
"o c #A5BAC4",
"O c #D4DEE4",
/* pixels */
"                                ",
"  OOOOOOOOOOOOOOOOOOOOOOOOOOO   ",
"OOXXXXXXXXXXXXXXXXXXXXXXXXXXX.. ",
"OXXX                       XXX. ",
"OXX OOOOOOOOOOOOOOOOOOOOOOO XX. ",
"OXX Oooooooo       oooooooo XX. ",
"OXX oooooooo.......oooooooo XX. ",
"OXX ooooooooooooooooooooooo XX. ",
"OXX ooooooooooooooooooooooo XX. ",
"OXX ooooooooooooooooooooooo XX. ",
"OXX ooooooooooooooooooooooo XX. ",
"OXX ooooooooooooooooooooooo XX. ",
"OXX ooooooooooooooooooooooo XX. ",
"OXX ooooooooooooooooooooooo XX. ",
"OXX ooooooooooooooooooooooo XX. ",
"OXX ooooooooooooooooooooooo XX. ",
"OXX ooooooooooooooooooooooo XX. ",
"OXX ooooooooooooooooooooooo XX. ",
"OXX ooooooooooooooooooooooo XX. ",
"OXX ooooooooooooooooooooooo XX. ",
"OXX ooooooooooooooooooooooo XX. ",
"OXX ooooooooooooooooooooooo XX. ",
"OXX ooooooooooooooooooooooo XX. ",
"OXX ooooooooooooooooooooooo XX. ",
"OXX ooooooooooooooooooooooo XX. ",
"OXX ooooooooooooooooooooooo XX. ",
"OXX ooooooooooooooooooooooo XX. ",
"OXX ooooooooooooooooooooooo XX. ",
"OXXO                       OXX. ",
"OXXXOOOOOOOOOOOOOOOOOOOOOOOXXX. ",
"OOXXXXXXXXXXXXXXXXXXXXXXXXXXX.. ",
"  ...........................   "
};
